<svg width="1357" height="49" viewBox="0 0 1357 49" fill="none" xmlns="http://www.w3.org/2000/svg">
<path d="M4 26L1353 26" stroke="#FF6D1B" stroke-width="2"/>
<rect width="296" height="49" rx="24.5" fill="#FF6D1B"/>
<path d="M33.728 15.912V17.88H24.152V23.232H33.104V25.128H24.152V31.032H33.848V33H21.896V15.912H33.728ZM48.9519 15.912L43.2639 24.192L49.2639 33H46.5279L41.9199 25.968L37.1439 33H34.5519L40.5759 24.192L34.9359 15.912H37.6479L41.9439 22.488L46.3839 15.912H48.9519ZM51.3358 15.912H58.3678C60.1118 15.912 61.4958 16.312 62.5198 17.112C63.5438 17.896 64.0558 19.136 64.0558 20.832C64.0558 24.272 62.1118 25.992 58.2238 25.992H53.5918V33H51.3358V15.912ZM53.5918 17.856V24.096H57.9358C59.1518 24.096 60.0958 23.872 60.7678 23.424C61.4558 22.96 61.7998 22.144 61.7998 20.976C61.7998 20.32 61.6878 19.776 61.4637 19.344C61.2558 18.912 60.9438 18.592 60.5278 18.384C60.1118 18.176 59.6798 18.04 59.2318 17.976C58.7838 17.896 58.2478 17.856 57.6238 17.856H53.5918ZM78.1543 31.032V33H66.8263V15.912H69.0823V31.032H78.1543ZM87.3382 15.504C89.9302 15.504 91.9462 16.32 93.3862 17.952C94.8262 19.568 95.5462 21.688 95.5462 24.312C95.5462 26.952 94.8342 29.128 93.4102 30.84C91.9862 32.552 89.9702 33.408 87.3622 33.408C86.0342 33.408 84.8422 33.168 83.7862 32.688C82.7302 32.208 81.8662 31.544 81.1942 30.696C80.5382 29.848 80.0342 28.88 79.6822 27.792C79.3462 26.704 79.1782 25.528 79.1782 24.264C79.1782 21.592 79.9142 19.464 81.3862 17.88C82.8742 16.296 84.8582 15.504 87.3382 15.504ZM87.3382 17.472C85.4342 17.472 83.9702 18.144 82.9462 19.488C81.9382 20.816 81.4342 22.464 81.4342 24.432C81.4342 26.576 81.9702 28.288 83.0422 29.568C84.1302 30.832 85.5782 31.464 87.3862 31.464C89.1782 31.464 90.6102 30.824 91.6822 29.544C92.7542 28.264 93.2902 26.56 93.2902 24.432C93.2902 22.32 92.7462 20.632 91.6582 19.368C90.5862 18.104 89.1462 17.472 87.3382 17.472ZM98.3726 15.912H105.885C109.709 15.912 111.621 17.488 111.621 20.64C111.621 21.632 111.349 22.512 110.805 23.28C110.277 24.032 109.573 24.536 108.693 24.792C109.269 24.92 109.733 25.104 110.085 25.344C110.437 25.584 110.693 25.92 110.853 26.352C111.013 26.784 111.117 27.168 111.165 27.504C111.213 27.84 111.253 28.336 111.285 28.992C111.285 29.056 111.293 29.216 111.309 29.472C111.325 29.712 111.333 29.88 111.333 29.976C111.333 30.056 111.341 30.208 111.357 30.432C111.389 30.656 111.413 30.824 111.429 30.936C111.445 31.048 111.469 31.2 111.501 31.392C111.533 31.584 111.573 31.744 111.621 31.872C111.669 31.984 111.725 32.12 111.789 32.28C111.853 32.424 111.925 32.56 112.005 32.688C112.085 32.8 112.173 32.904 112.269 33H109.677C109.565 32.84 109.469 32.64 109.389 32.4C109.325 32.16 109.277 31.88 109.245 31.56C109.213 31.224 109.189 30.96 109.173 30.768C109.157 30.56 109.141 30.264 109.125 29.88C109.109 29.496 109.101 29.28 109.101 29.232C109.021 27.776 108.717 26.808 108.189 26.328C107.677 25.848 106.653 25.608 105.117 25.608H100.629V33H98.3726V15.912ZM100.629 17.832V23.808H104.877C105.405 23.808 105.845 23.792 106.197 23.76C106.565 23.728 106.965 23.656 107.397 23.544C107.829 23.432 108.173 23.272 108.429 23.064C108.701 22.856 108.925 22.56 109.101 22.176C109.277 21.792 109.365 21.328 109.365 20.784C109.365 19.632 109.013 18.856 108.309 18.456C107.621 18.04 106.677 17.832 105.477 17.832H100.629ZM121.978 15.912L128.65 33H126.13L124.234 27.768H117.058L115.114 33H112.714L119.434 15.912H121.978ZM123.562 25.968L120.658 18.072L117.706 25.968H123.562ZM140.018 15.912V17.88H134.282V33H132.026V17.88H126.29V15.912H140.018ZM149.143 15.504C151.735 15.504 153.751 16.32 155.191 17.952C156.631 19.568 157.351 21.688 157.351 24.312C157.351 26.952 156.639 29.128 155.215 30.84C153.791 32.552 151.775 33.408 149.167 33.408C147.839 33.408 146.647 33.168 145.591 32.688C144.535 32.208 143.671 31.544 142.999 30.696C142.343 29.848 141.839 28.88 141.487 27.792C141.151 26.704 140.983 25.528 140.983 24.264C140.983 21.592 141.719 19.464 143.191 17.88C144.679 16.296 146.663 15.504 149.143 15.504ZM149.143 17.472C147.239 17.472 145.775 18.144 144.751 19.488C143.743 20.816 143.239 22.464 143.239 24.432C143.239 26.576 143.775 28.288 144.847 29.568C145.935 30.832 147.383 31.464 149.191 31.464C150.983 31.464 152.415 30.824 153.487 29.544C154.559 28.264 155.095 26.56 155.095 24.432C155.095 22.32 154.551 20.632 153.463 19.368C152.391 18.104 150.951 17.472 149.143 17.472ZM160.177 15.912H167.689C171.513 15.912 173.425 17.488 173.425 20.64C173.425 21.632 173.153 22.512 172.609 23.28C172.081 24.032 171.377 24.536 170.497 24.792C171.073 24.92 171.537 25.104 171.889 25.344C172.241 25.584 172.497 25.92 172.657 26.352C172.817 26.784 172.921 27.168 172.969 27.504C173.017 27.84 173.057 28.336 173.089 28.992C173.089 29.056 173.097 29.216 173.113 29.472C173.129 29.712 173.137 29.88 173.137 29.976C173.137 30.056 173.145 30.208 173.161 30.432C173.193 30.656 173.217 30.824 173.233 30.936C173.249 31.048 173.273 31.2 173.305 31.392C173.337 31.584 173.377 31.744 173.425 31.872C173.473 31.984 173.529 32.12 173.593 32.28C173.657 32.424 173.729 32.56 173.809 32.688C173.889 32.8 173.977 32.904 174.073 33H171.481C171.369 32.84 171.273 32.64 171.193 32.4C171.129 32.16 171.081 31.88 171.049 31.56C171.017 31.224 170.993 30.96 170.977 30.768C170.961 30.56 170.945 30.264 170.929 29.88C170.913 29.496 170.905 29.28 170.905 29.232C170.825 27.776 170.521 26.808 169.993 26.328C169.481 25.848 168.457 25.608 166.921 25.608H162.433V33H160.177V15.912ZM162.433 17.832V23.808H166.681C167.209 23.808 167.649 23.792 168.001 23.76C168.369 23.728 168.769 23.656 169.201 23.544C169.633 23.432 169.977 23.272 170.233 23.064C170.505 22.856 170.729 22.56 170.905 22.176C171.081 21.792 171.169 21.328 171.169 20.784C171.169 19.632 170.817 18.856 170.113 18.456C169.425 18.04 168.481 17.832 167.281 17.832H162.433ZM189.372 15.912L182.772 26.016V33H180.54V26.016L173.892 15.912H176.604L181.716 24.048L186.78 15.912H189.372ZM210.055 20.928H207.871C207.631 18.608 206.215 17.448 203.623 17.448C202.391 17.448 201.439 17.696 200.767 18.192C200.095 18.688 199.759 19.384 199.759 20.28C199.759 20.6 199.807 20.88 199.903 21.12C199.999 21.36 200.159 21.576 200.383 21.768C200.623 21.944 200.847 22.096 201.055 22.224C201.263 22.352 201.591 22.48 202.039 22.608C202.487 22.736 202.847 22.832 203.118 22.896C203.391 22.944 203.815 23.032 204.391 23.16C205.095 23.304 205.679 23.44 206.143 23.568C206.607 23.68 207.159 23.872 207.799 24.144C208.439 24.416 208.943 24.72 209.311 25.056C209.695 25.376 210.023 25.808 210.295 26.352C210.583 26.896 210.727 27.512 210.727 28.2C210.727 29.4 210.391 30.408 209.719 31.224C209.047 32.024 208.231 32.584 207.271 32.904C206.311 33.224 205.247 33.384 204.079 33.384C201.935 33.384 200.215 32.88 198.919 31.872C197.639 30.848 196.999 29.344 196.999 27.36H199.183C199.231 28.816 199.719 29.88 200.647 30.552C201.575 31.208 202.783 31.536 204.271 31.536C205.439 31.536 206.439 31.296 207.271 30.816C208.103 30.32 208.519 29.52 208.519 28.416C208.519 27.904 208.407 27.472 208.182 27.12C207.959 26.752 207.607 26.456 207.127 26.232C206.647 25.992 206.167 25.8 205.687 25.656C205.207 25.512 204.575 25.352 203.791 25.176C203.679 25.16 203.599 25.144 203.551 25.128C201.791 24.728 200.639 24.408 200.095 24.168C198.431 23.448 197.599 22.208 197.599 20.448C197.599 18.816 198.199 17.6 199.399 16.8C200.615 15.984 202.079 15.576 203.791 15.576C205.663 15.576 207.159 16.024 208.279 16.92C209.399 17.816 209.991 19.152 210.055 20.928ZM225.377 15.912V17.88H219.641V33H217.385V17.88H211.649V15.912H225.377ZM227.182 15.912H229.462V26.688C229.462 28.352 229.822 29.568 230.542 30.336C231.262 31.104 232.438 31.488 234.07 31.488C235.75 31.488 236.934 31.096 237.622 30.312C238.326 29.528 238.678 28.32 238.678 26.688V15.912H240.958V26.088C240.958 28.584 240.438 30.424 239.398 31.608C238.358 32.776 236.582 33.36 234.07 33.36C231.638 33.36 229.878 32.792 228.79 31.656C227.718 30.504 227.182 28.728 227.182 26.328V15.912ZM244.623 15.912H250.191C253.087 15.912 255.223 16.584 256.599 17.928C257.975 19.272 258.663 21.4 258.663 24.312C258.663 27.176 258.023 29.344 256.743 30.816C255.463 32.272 253.415 33 250.599 33H244.623V15.912ZM246.879 17.856V31.056H250.311C252.455 31.056 254.007 30.536 254.967 29.496C255.943 28.44 256.431 26.8 256.431 24.576C256.431 22.24 255.959 20.536 255.015 19.464C254.071 18.392 252.471 17.856 250.215 17.856H246.879ZM275.177 15.912L268.577 26.016V33H266.345V26.016L259.697 15.912H262.409L267.521 24.048L272.585 15.912H275.177Z" fill="white"/>
<rect x="412" y="1" width="264" height="47" rx="23.5" fill="white"/>
<rect x="412" y="1" width="264" height="47" rx="23.5" stroke="#FF6D1B" stroke-width="2"/>
<path d="M435.248 15.912V33H432.992V15.912H435.248ZM439.107 15.912H444.675C447.571 15.912 449.707 16.584 451.083 17.928C452.459 19.272 453.147 21.4 453.147 24.312C453.147 27.176 452.507 29.344 451.227 30.816C449.947 32.272 447.899 33 445.083 33H439.107V15.912ZM441.363 17.856V31.056H444.795C446.939 31.056 448.491 30.536 449.451 29.496C450.427 28.44 450.915 26.8 450.915 24.576C450.915 22.24 450.443 20.536 449.499 19.464C448.555 18.392 446.955 17.856 444.699 17.856H441.363ZM467.837 15.912V17.88H458.261V23.232H467.213V25.128H458.261V31.032H467.957V33H456.005V15.912H467.837ZM477.853 15.912L484.525 33H482.005L480.109 27.768H472.933L470.989 33H468.589L475.309 15.912H477.853ZM479.437 25.968L476.533 18.072L473.581 25.968H479.437ZM498.336 20.928H496.152C495.912 18.608 494.496 17.448 491.904 17.448C490.672 17.448 489.72 17.696 489.048 18.192C488.376 18.688 488.04 19.384 488.04 20.28C488.04 20.6 488.088 20.88 488.184 21.12C488.28 21.36 488.44 21.576 488.664 21.768C488.904 21.944 489.128 22.096 489.336 22.224C489.544 22.352 489.872 22.48 490.32 22.608C490.768 22.736 491.128 22.832 491.4 22.896C491.672 22.944 492.096 23.032 492.672 23.16C493.376 23.304 493.96 23.44 494.424 23.568C494.888 23.68 495.44 23.872 496.08 24.144C496.72 24.416 497.224 24.72 497.592 25.056C497.976 25.376 498.304 25.808 498.576 26.352C498.864 26.896 499.008 27.512 499.008 28.2C499.008 29.4 498.672 30.408 498 31.224C497.328 32.024 496.512 32.584 495.552 32.904C494.592 33.224 493.528 33.384 492.36 33.384C490.216 33.384 488.496 32.88 487.2 31.872C485.92 30.848 485.28 29.344 485.28 27.36H487.464C487.512 28.816 488 29.88 488.928 30.552C489.856 31.208 491.064 31.536 492.552 31.536C493.72 31.536 494.72 31.296 495.552 30.816C496.384 30.32 496.8 29.52 496.8 28.416C496.8 27.904 496.688 27.472 496.464 27.12C496.24 26.752 495.888 26.456 495.408 26.232C494.928 25.992 494.448 25.8 493.968 25.656C493.488 25.512 492.856 25.352 492.072 25.176C491.96 25.16 491.88 25.144 491.832 25.128C490.072 24.728 488.92 24.408 488.376 24.168C486.712 23.448 485.88 22.208 485.88 20.448C485.88 18.816 486.48 17.6 487.68 16.8C488.896 15.984 490.36 15.576 492.072 15.576C493.944 15.576 495.44 16.024 496.56 16.92C497.68 17.816 498.272 19.152 498.336 20.928ZM523.314 23.952V33H521.874L521.298 30.864C519.922 32.56 518.082 33.408 515.778 33.408C513.346 33.408 511.378 32.6 509.874 30.984C508.386 29.352 507.642 27.224 507.642 24.6C507.642 21.992 508.378 19.832 509.85 18.12C511.338 16.408 513.37 15.552 515.946 15.552C517.13 15.552 518.234 15.76 519.258 16.176C520.282 16.576 521.154 17.216 521.874 18.096C522.594 18.96 523.002 19.984 523.098 21.168H520.89C520.714 20.048 520.17 19.152 519.258 18.48C518.362 17.792 517.258 17.448 515.946 17.448C514.09 17.448 512.618 18.088 511.53 19.368C510.442 20.632 509.898 22.352 509.898 24.528C509.898 26.672 510.442 28.376 511.53 29.64C512.618 30.904 514.082 31.536 515.922 31.536C517.65 31.536 518.962 31.016 519.858 29.976C520.77 28.92 521.25 27.528 521.298 25.8H515.826V23.952H523.314ZM538.525 15.912V17.88H528.949V23.232H537.901V25.128H528.949V31.032H538.645V33H526.693V15.912H538.525ZM541.269 15.912H543.741L552.765 29.784V15.912H554.949V33H552.405L543.429 19.296V33H541.269V15.912ZM570.517 15.912V17.88H560.941V23.232H569.893V25.128H560.941V31.032H570.637V33H558.685V15.912H570.517ZM573.357 15.912H580.869C584.693 15.912 586.605 17.488 586.605 20.64C586.605 21.632 586.333 22.512 585.789 23.28C585.261 24.032 584.557 24.536 583.677 24.792C584.253 24.92 584.717 25.104 585.069 25.344C585.421 25.584 585.677 25.92 585.837 26.352C585.997 26.784 586.101 27.168 586.149 27.504C586.197 27.84 586.237 28.336 586.269 28.992C586.269 29.056 586.277 29.216 586.293 29.472C586.309 29.712 586.317 29.88 586.317 29.976C586.317 30.056 586.325 30.208 586.341 30.432C586.373 30.656 586.397 30.824 586.413 30.936C586.429 31.048 586.453 31.2 586.485 31.392C586.517 31.584 586.557 31.744 586.605 31.872C586.653 31.984 586.709 32.12 586.773 32.28C586.837 32.424 586.909 32.56 586.989 32.688C587.069 32.8 587.157 32.904 587.253 33H584.661C584.549 32.84 584.453 32.64 584.373 32.4C584.309 32.16 584.261 31.88 584.229 31.56C584.197 31.224 584.173 30.96 584.157 30.768C584.141 30.56 584.125 30.264 584.109 29.88C584.093 29.496 584.085 29.28 584.085 29.232C584.005 27.776 583.701 26.808 583.173 26.328C582.661 25.848 581.637 25.608 580.101 25.608H575.613V33H573.357V15.912ZM575.613 17.832V23.808H579.861C580.389 23.808 580.829 23.792 581.181 23.76C581.549 23.728 581.949 23.656 582.381 23.544C582.813 23.432 583.157 23.272 583.413 23.064C583.685 22.856 583.909 22.56 584.085 22.176C584.261 21.792 584.349 21.328 584.349 20.784C584.349 19.632 583.997 18.856 583.293 18.456C582.605 18.04 581.661 17.832 580.461 17.832H575.613ZM596.963 15.912L603.635 33H601.115L599.219 27.768H592.043L590.099 33H587.699L594.419 15.912H596.963ZM598.547 25.968L595.643 18.072L592.691 25.968H598.547ZM615.002 15.912V17.88H609.266V33H607.01V17.88H601.274V15.912H615.002ZM619.279 15.912V33H617.023V15.912H619.279ZM630.338 15.504C632.93 15.504 634.946 16.32 636.386 17.952C637.826 19.568 638.546 21.688 638.546 24.312C638.546 26.952 637.834 29.128 636.41 30.84C634.986 32.552 632.97 33.408 630.362 33.408C629.034 33.408 627.842 33.168 626.786 32.688C625.73 32.208 624.866 31.544 624.194 30.696C623.538 29.848 623.034 28.88 622.682 27.792C622.346 26.704 622.178 25.528 622.178 24.264C622.178 21.592 622.914 19.464 624.386 17.88C625.874 16.296 627.858 15.504 630.338 15.504ZM630.338 17.472C628.434 17.472 626.97 18.144 625.946 19.488C624.938 20.816 624.434 22.464 624.434 24.432C624.434 26.576 624.97 28.288 626.042 29.568C627.13 30.832 628.578 31.464 630.386 31.464C632.178 31.464 633.61 30.824 634.682 29.544C635.754 28.264 636.29 26.56 636.29 24.432C636.29 22.32 635.746 20.632 634.658 19.368C633.586 18.104 632.146 17.472 630.338 17.472ZM641.277 15.912H643.749L652.773 29.784V15.912H654.957V33H652.413L643.437 19.296V33H641.277V15.912Z" fill="#FF6D1B"/>
<rect x="793" y="1" width="249" height="47" rx="23.5" fill="white"/>
<rect x="793" y="1" width="249" height="47" rx="23.5" stroke="#FF6D1B" stroke-width="2"/>
<path d="M816.248 15.912V33H813.992V15.912H816.248ZM820.107 15.912H825.675C828.571 15.912 830.707 16.584 832.083 17.928C833.459 19.272 834.147 21.4 834.147 24.312C834.147 27.176 833.507 29.344 832.227 30.816C830.947 32.272 828.899 33 826.083 33H820.107V15.912ZM822.363 17.856V31.056H825.795C827.939 31.056 829.491 30.536 830.451 29.496C831.427 28.44 831.915 26.8 831.915 24.576C831.915 22.24 831.443 20.536 830.499 19.464C829.555 18.392 827.955 17.856 825.699 17.856H822.363ZM848.837 15.912V17.88H839.261V23.232H848.213V25.128H839.261V31.032H848.957V33H837.005V15.912H848.837ZM858.853 15.912L865.525 33H863.005L861.109 27.768H853.933L851.989 33H849.589L856.309 15.912H858.853ZM860.437 25.968L857.533 18.072L854.581 25.968H860.437ZM879.336 20.928H877.152C876.912 18.608 875.496 17.448 872.904 17.448C871.672 17.448 870.72 17.696 870.048 18.192C869.376 18.688 869.04 19.384 869.04 20.28C869.04 20.6 869.088 20.88 869.184 21.12C869.28 21.36 869.44 21.576 869.664 21.768C869.904 21.944 870.128 22.096 870.336 22.224C870.544 22.352 870.872 22.48 871.32 22.608C871.768 22.736 872.128 22.832 872.4 22.896C872.672 22.944 873.096 23.032 873.672 23.16C874.376 23.304 874.96 23.44 875.424 23.568C875.888 23.68 876.44 23.872 877.08 24.144C877.72 24.416 878.224 24.72 878.592 25.056C878.976 25.376 879.304 25.808 879.576 26.352C879.864 26.896 880.008 27.512 880.008 28.2C880.008 29.4 879.672 30.408 879 31.224C878.328 32.024 877.512 32.584 876.552 32.904C875.592 33.224 874.528 33.384 873.36 33.384C871.216 33.384 869.496 32.88 868.2 31.872C866.92 30.848 866.28 29.344 866.28 27.36H868.464C868.512 28.816 869 29.88 869.928 30.552C870.856 31.208 872.064 31.536 873.552 31.536C874.72 31.536 875.72 31.296 876.552 30.816C877.384 30.32 877.8 29.52 877.8 28.416C877.8 27.904 877.688 27.472 877.464 27.12C877.24 26.752 876.888 26.456 876.408 26.232C875.928 25.992 875.448 25.8 874.968 25.656C874.488 25.512 873.856 25.352 873.072 25.176C872.96 25.16 872.88 25.144 872.832 25.128C871.072 24.728 869.92 24.408 869.376 24.168C867.712 23.448 866.88 22.208 866.88 20.448C866.88 18.816 867.48 17.6 868.68 16.8C869.896 15.984 871.36 15.576 873.072 15.576C874.944 15.576 876.44 16.024 877.56 16.92C878.68 17.816 879.272 19.152 879.336 20.928ZM887.538 15.912H890.034L894.954 30.792L899.922 15.912H902.298L896.202 33H893.61L887.538 15.912ZM910.228 15.912L916.9 33H914.38L912.484 27.768H905.308L903.364 33H900.964L907.684 15.912H910.228ZM911.812 25.968L908.908 18.072L905.956 25.968H911.812ZM929.967 31.032V33H918.639V15.912H920.895V31.032H929.967ZM934.303 15.912V33H932.047V15.912H934.303ZM938.162 15.912H943.73C946.626 15.912 948.762 16.584 950.138 17.928C951.514 19.272 952.202 21.4 952.202 24.312C952.202 27.176 951.562 29.344 950.282 30.816C949.002 32.272 946.954 33 944.138 33H938.162V15.912ZM940.418 17.856V31.056H943.85C945.994 31.056 947.546 30.536 948.506 29.496C949.482 28.44 949.97 26.8 949.97 24.576C949.97 22.24 949.498 20.536 948.554 19.464C947.61 18.392 946.01 17.856 943.754 17.856H940.418ZM962.236 15.912L968.908 33H966.388L964.492 27.768H957.316L955.372 33H952.972L959.692 15.912H962.236ZM963.82 25.968L960.916 18.072L957.964 25.968H963.82ZM980.275 15.912V17.88H974.539V33H972.283V17.88H966.547V15.912H980.275ZM984.553 15.912V33H982.297V15.912H984.553ZM995.612 15.504C998.204 15.504 1000.22 16.32 1001.66 17.952C1003.1 19.568 1003.82 21.688 1003.82 24.312C1003.82 26.952 1003.11 29.128 1001.68 30.84C1000.26 32.552 998.244 33.408 995.636 33.408C994.308 33.408 993.116 33.168 992.06 32.688C991.004 32.208 990.14 31.544 989.468 30.696C988.812 29.848 988.308 28.88 987.956 27.792C987.62 26.704 987.452 25.528 987.452 24.264C987.452 21.592 988.188 19.464 989.66 17.88C991.148 16.296 993.132 15.504 995.612 15.504ZM995.612 17.472C993.708 17.472 992.244 18.144 991.22 19.488C990.212 20.816 989.708 22.464 989.708 24.432C989.708 26.576 990.244 28.288 991.316 29.568C992.404 30.832 993.852 31.464 995.66 31.464C997.452 31.464 998.884 30.824 999.956 29.544C1001.03 28.264 1001.56 26.56 1001.56 24.432C1001.56 22.32 1001.02 20.632 999.932 19.368C998.86 18.104 997.42 17.472 995.612 17.472ZM1006.55 15.912H1009.02L1018.05 29.784V15.912H1020.23V33H1017.69L1008.71 19.296V33H1006.55V15.912Z" fill="#FF6D1B"/>
<rect x="1167" y="1" width="189" height="47" rx="23.5" fill="white"/>
<rect x="1167" y="1" width="189" height="47" rx="23.5" stroke="#FF6D1B" stroke-width="2"/>
<path d="M1187.9 15.912H1195.41C1199.23 15.912 1201.14 17.488 1201.14 20.64C1201.14 21.632 1200.87 22.512 1200.33 23.28C1199.8 24.032 1199.1 24.536 1198.22 24.792C1198.79 24.92 1199.26 25.104 1199.61 25.344C1199.96 25.584 1200.22 25.92 1200.38 26.352C1200.54 26.784 1200.64 27.168 1200.69 27.504C1200.74 27.84 1200.78 28.336 1200.81 28.992C1200.81 29.056 1200.82 29.216 1200.83 29.472C1200.85 29.712 1200.86 29.88 1200.86 29.976C1200.86 30.056 1200.86 30.208 1200.88 30.432C1200.91 30.656 1200.94 30.824 1200.95 30.936C1200.97 31.048 1200.99 31.2 1201.02 31.392C1201.06 31.584 1201.1 31.744 1201.14 31.872C1201.19 31.984 1201.25 32.12 1201.31 32.28C1201.38 32.424 1201.45 32.56 1201.53 32.688C1201.61 32.8 1201.7 32.904 1201.79 33H1199.2C1199.09 32.84 1198.99 32.64 1198.91 32.4C1198.85 32.16 1198.8 31.88 1198.77 31.56C1198.74 31.224 1198.71 30.96 1198.7 30.768C1198.68 30.56 1198.66 30.264 1198.65 29.88C1198.63 29.496 1198.62 29.28 1198.62 29.232C1198.54 27.776 1198.24 26.808 1197.71 26.328C1197.2 25.848 1196.18 25.608 1194.64 25.608H1190.15V33H1187.9V15.912ZM1190.15 17.832V23.808H1194.4C1194.93 23.808 1195.37 23.792 1195.72 23.76C1196.09 23.728 1196.49 23.656 1196.92 23.544C1197.35 23.432 1197.7 23.272 1197.95 23.064C1198.22 22.856 1198.45 22.56 1198.62 22.176C1198.8 21.792 1198.89 21.328 1198.89 20.784C1198.89 19.632 1198.54 18.856 1197.83 18.456C1197.14 18.04 1196.2 17.832 1195 17.832H1190.15ZM1216.16 15.912V17.88H1206.58V23.232H1215.53V25.128H1206.58V31.032H1216.28V33H1204.33V15.912H1216.16ZM1226.17 15.912L1232.85 33H1230.33L1228.43 27.768H1221.25L1219.31 33H1216.91L1223.63 15.912H1226.17ZM1227.76 25.968L1224.85 18.072L1221.9 25.968H1227.76ZM1245.91 31.032V33H1234.58V15.912H1236.84V31.032H1245.91ZM1250.25 15.912V33H1247.99V15.912H1250.25ZM1266.2 20.928H1264.02C1263.78 18.608 1262.36 17.448 1259.77 17.448C1258.54 17.448 1257.59 17.696 1256.91 18.192C1256.24 18.688 1255.91 19.384 1255.91 20.28C1255.91 20.6 1255.95 20.88 1256.05 21.12C1256.15 21.36 1256.31 21.576 1256.53 21.768C1256.77 21.944 1256.99 22.096 1257.2 22.224C1257.41 22.352 1257.74 22.48 1258.19 22.608C1258.63 22.736 1258.99 22.832 1259.27 22.896C1259.54 22.944 1259.96 23.032 1260.54 23.16C1261.24 23.304 1261.83 23.44 1262.29 23.568C1262.75 23.68 1263.31 23.872 1263.95 24.144C1264.59 24.416 1265.09 24.72 1265.46 25.056C1265.84 25.376 1266.17 25.808 1266.44 26.352C1266.73 26.896 1266.87 27.512 1266.87 28.2C1266.87 29.4 1266.54 30.408 1265.87 31.224C1265.19 32.024 1264.38 32.584 1263.42 32.904C1262.46 33.224 1261.39 33.384 1260.23 33.384C1258.08 33.384 1256.36 32.88 1255.07 31.872C1253.79 30.848 1253.15 29.344 1253.15 27.36H1255.33C1255.38 28.816 1255.87 29.88 1256.79 30.552C1257.72 31.208 1258.93 31.536 1260.42 31.536C1261.59 31.536 1262.59 31.296 1263.42 30.816C1264.25 30.32 1264.67 29.52 1264.67 28.416C1264.67 27.904 1264.55 27.472 1264.33 27.12C1264.11 26.752 1263.75 26.456 1263.27 26.232C1262.79 25.992 1262.31 25.8 1261.83 25.656C1261.35 25.512 1260.72 25.352 1259.94 25.176C1259.83 25.16 1259.75 25.144 1259.7 25.128C1257.94 24.728 1256.79 24.408 1256.24 24.168C1254.58 23.448 1253.75 22.208 1253.75 20.448C1253.75 18.816 1254.35 17.6 1255.55 16.8C1256.76 15.984 1258.23 15.576 1259.94 15.576C1261.81 15.576 1263.31 16.024 1264.43 16.92C1265.55 17.816 1266.14 19.152 1266.2 20.928ZM1276.85 15.912L1283.52 33H1281L1279.1 27.768H1271.93L1269.98 33H1267.58L1274.3 15.912H1276.85ZM1278.43 25.968L1275.53 18.072L1272.57 25.968H1278.43ZM1294.88 15.912V17.88H1289.15V33H1286.89V17.88H1281.16V15.912H1294.88ZM1299.16 15.912V33H1296.91V15.912H1299.16ZM1310.22 15.504C1312.81 15.504 1314.83 16.32 1316.27 17.952C1317.71 19.568 1318.43 21.688 1318.43 24.312C1318.43 26.952 1317.72 29.128 1316.29 30.84C1314.87 32.552 1312.85 33.408 1310.25 33.408C1308.92 33.408 1307.73 33.168 1306.67 32.688C1305.61 32.208 1304.75 31.544 1304.08 30.696C1303.42 29.848 1302.92 28.88 1302.57 27.792C1302.23 26.704 1302.06 25.528 1302.06 24.264C1302.06 21.592 1302.8 19.464 1304.27 17.88C1305.76 16.296 1307.74 15.504 1310.22 15.504ZM1310.22 17.472C1308.32 17.472 1306.85 18.144 1305.83 19.488C1304.82 20.816 1304.32 22.464 1304.32 24.432C1304.32 26.576 1304.85 28.288 1305.93 29.568C1307.01 30.832 1308.46 31.464 1310.27 31.464C1312.06 31.464 1313.49 30.824 1314.57 29.544C1315.64 28.264 1316.17 26.56 1316.17 24.432C1316.17 22.32 1315.63 20.632 1314.54 19.368C1313.47 18.104 1312.03 17.472 1310.22 17.472ZM1321.16 15.912H1323.63L1332.66 29.784V15.912H1334.84V33H1332.3L1323.32 19.296V33H1321.16V15.912Z" fill="#FF6D1B"/>
</svg>
