<svg width="343" height="34" viewBox="0 0 343 34" fill="none" xmlns="http://www.w3.org/2000/svg">
<rect x="0.688235" y="0.688235" width="197.153" height="31.8294" rx="15.9147" stroke="#FF6D1B" stroke-width="1.37647"/>
<path d="M22.9166 10.9316V12.2436H16.5326V15.8116H22.5006V17.0756H16.5326V21.0116H22.9966V22.3236H15.0286V10.9316H22.9166ZM33.0658 10.9316L29.2738 16.4516L33.2738 22.3236H31.4498L28.3778 17.6356L25.1938 22.3236H23.4658L27.4818 16.4516L23.7218 10.9316H25.5298L28.3938 15.3156L31.3538 10.9316H33.0658ZM34.6551 10.9316H39.3431C40.5058 10.9316 41.4284 11.1983 42.1111 11.7316C42.7938 12.2543 43.1351 13.0809 43.1351 14.2116C43.1351 16.5049 41.8391 17.6516 39.2471 17.6516H36.1591V22.3236H34.6551V10.9316ZM36.1591 12.2276V16.3876H39.0551C39.8658 16.3876 40.4951 16.2383 40.9431 15.9396C41.4018 15.6303 41.6311 15.0863 41.6311 14.3076C41.6311 13.8703 41.5564 13.5076 41.4071 13.2196C41.2684 12.9316 41.0604 12.7183 40.7831 12.5796C40.5058 12.4409 40.2178 12.3503 39.9191 12.3076C39.6204 12.2543 39.2631 12.2276 38.8471 12.2276H36.1591ZM52.5341 21.0116V22.3236H44.9821V10.9316H46.4861V21.0116H52.5341ZM58.6567 10.6596C60.3847 10.6596 61.7287 11.2036 62.6887 12.2916C63.6487 13.3689 64.1287 14.7823 64.1287 16.5316C64.1287 18.2916 63.654 19.7423 62.7047 20.8836C61.7554 22.0249 60.4114 22.5956 58.6727 22.5956C57.7874 22.5956 56.9927 22.4356 56.2887 22.1156C55.5847 21.7956 55.0087 21.3529 54.5607 20.7876C54.1234 20.2223 53.7874 19.5769 53.5527 18.8516C53.3287 18.1263 53.2167 17.3423 53.2167 16.4996C53.2167 14.7183 53.7074 13.2996 54.6887 12.2436C55.6807 11.1876 57.0034 10.6596 58.6567 10.6596ZM58.6567 11.9716C57.3874 11.9716 56.4114 12.4196 55.7287 13.3156C55.0567 14.2009 54.7207 15.2996 54.7207 16.6116C54.7207 18.0409 55.078 19.1823 55.7927 20.0356C56.518 20.8783 57.4834 21.2996 58.6887 21.2996C59.8834 21.2996 60.838 20.8729 61.5527 20.0196C62.2674 19.1663 62.6247 18.0303 62.6247 16.6116C62.6247 15.2036 62.262 14.0783 61.5367 13.2356C60.822 12.3929 59.862 11.9716 58.6567 11.9716ZM66.013 10.9316H71.021C73.5703 10.9316 74.845 11.9823 74.845 14.0836C74.845 14.7449 74.6636 15.3316 74.301 15.8436C73.949 16.3449 73.4796 16.6809 72.893 16.8516C73.277 16.9369 73.5863 17.0596 73.821 17.2196C74.0556 17.3796 74.2263 17.6036 74.333 17.8916C74.4396 18.1796 74.509 18.4356 74.541 18.6596C74.573 18.8836 74.5996 19.2143 74.621 19.6516C74.621 19.6943 74.6263 19.8009 74.637 19.9716C74.6476 20.1316 74.653 20.2436 74.653 20.3076C74.653 20.3609 74.6583 20.4623 74.669 20.6116C74.6903 20.7609 74.7063 20.8729 74.717 20.9476C74.7276 21.0223 74.7436 21.1236 74.765 21.2516C74.7863 21.3796 74.813 21.4863 74.845 21.5716C74.877 21.6463 74.9143 21.7369 74.957 21.8436C74.9996 21.9396 75.0476 22.0303 75.101 22.1156C75.1543 22.1903 75.213 22.2596 75.277 22.3236H73.549C73.4743 22.2169 73.4103 22.0836 73.357 21.9236C73.3143 21.7636 73.2823 21.5769 73.261 21.3636C73.2396 21.1396 73.2236 20.9636 73.213 20.8356C73.2023 20.6969 73.1916 20.4996 73.181 20.2436C73.1703 19.9876 73.165 19.8436 73.165 19.8116C73.1116 18.8409 72.909 18.1956 72.557 17.8756C72.2156 17.5556 71.533 17.3956 70.509 17.3956H67.517V22.3236H66.013V10.9316ZM67.517 12.2116V16.1956H70.349C70.701 16.1956 70.9943 16.1849 71.229 16.1636C71.4743 16.1423 71.741 16.0943 72.029 16.0196C72.317 15.9449 72.5463 15.8383 72.717 15.6996C72.8983 15.5609 73.0476 15.3636 73.165 15.1076C73.2823 14.8516 73.341 14.5423 73.341 14.1796C73.341 13.4116 73.1063 12.8943 72.637 12.6276C72.1783 12.3503 71.549 12.2116 70.749 12.2116H67.517ZM81.7501 10.9316L86.1981 22.3236H84.5181L83.2541 18.8356H78.4701L77.1741 22.3236H75.5741L80.0541 10.9316H81.7501ZM82.8061 17.6356L80.8701 12.3716L78.9021 17.6356H82.8061ZM93.7763 10.9316V12.2436H89.9523V22.3236H88.4483V12.2436H84.6243V10.9316H93.7763ZM99.8598 10.6596C101.588 10.6596 102.932 11.2036 103.892 12.2916C104.852 13.3689 105.332 14.7823 105.332 16.5316C105.332 18.2916 104.857 19.7423 103.908 20.8836C102.959 22.0249 101.615 22.5956 99.8758 22.5956C98.9905 22.5956 98.1958 22.4356 97.4918 22.1156C96.7878 21.7956 96.2118 21.3529 95.7638 20.7876C95.3265 20.2223 94.9905 19.5769 94.7558 18.8516C94.5318 18.1263 94.4198 17.3423 94.4198 16.4996C94.4198 14.7183 94.9105 13.2996 95.8918 12.2436C96.8838 11.1876 98.2065 10.6596 99.8598 10.6596ZM99.8598 11.9716C98.5905 11.9716 97.6145 12.4196 96.9318 13.3156C96.2598 14.2009 95.9238 15.2996 95.9238 16.6116C95.9238 18.0409 96.2812 19.1823 96.9958 20.0356C97.7212 20.8783 98.6865 21.2996 99.8918 21.2996C101.087 21.2996 102.041 20.8729 102.756 20.0196C103.471 19.1663 103.828 18.0303 103.828 16.6116C103.828 15.2036 103.465 14.0783 102.74 13.2356C102.025 12.3929 101.065 11.9716 99.8598 11.9716ZM107.216 10.9316H112.224C114.773 10.9316 116.048 11.9823 116.048 14.0836C116.048 14.7449 115.867 15.3316 115.504 15.8436C115.152 16.3449 114.683 16.6809 114.096 16.8516C114.48 16.9369 114.789 17.0596 115.024 17.2196C115.259 17.3796 115.429 17.6036 115.536 17.8916C115.643 18.1796 115.712 18.4356 115.744 18.6596C115.776 18.8836 115.803 19.2143 115.824 19.6516C115.824 19.6943 115.829 19.8009 115.84 19.9716C115.851 20.1316 115.856 20.2436 115.856 20.3076C115.856 20.3609 115.861 20.4623 115.872 20.6116C115.893 20.7609 115.909 20.8729 115.92 20.9476C115.931 21.0223 115.947 21.1236 115.968 21.2516C115.989 21.3796 116.016 21.4863 116.048 21.5716C116.08 21.6463 116.117 21.7369 116.16 21.8436C116.203 21.9396 116.251 22.0303 116.304 22.1156C116.357 22.1903 116.416 22.2596 116.48 22.3236H114.752C114.677 22.2169 114.613 22.0836 114.56 21.9236C114.517 21.7636 114.485 21.5769 114.464 21.3636C114.443 21.1396 114.427 20.9636 114.416 20.8356C114.405 20.6969 114.395 20.4996 114.384 20.2436C114.373 19.9876 114.368 19.8436 114.368 19.8116C114.315 18.8409 114.112 18.1956 113.76 17.8756C113.419 17.5556 112.736 17.3956 111.712 17.3956H108.72V22.3236H107.216V10.9316ZM108.72 12.2116V16.1956H111.552C111.904 16.1956 112.197 16.1849 112.432 16.1636C112.677 16.1423 112.944 16.0943 113.232 16.0196C113.52 15.9449 113.749 15.8383 113.92 15.6996C114.101 15.5609 114.251 15.3636 114.368 15.1076C114.485 14.8516 114.544 14.5423 114.544 14.1796C114.544 13.4116 114.309 12.8943 113.84 12.6276C113.381 12.3503 112.752 12.2116 111.952 12.2116H108.72ZM126.679 10.9316L122.279 17.6676V22.3236H120.791V17.6676L116.359 10.9316H118.167L121.575 16.3556L124.951 10.9316H126.679ZM140.468 14.2756H139.012C138.852 12.7289 137.908 11.9556 136.18 11.9556C135.358 11.9556 134.724 12.1209 134.276 12.4516C133.828 12.7823 133.604 13.2463 133.604 13.8436C133.604 14.0569 133.636 14.2436 133.7 14.4036C133.764 14.5636 133.87 14.7076 134.02 14.8356C134.18 14.9529 134.329 15.0543 134.468 15.1396C134.606 15.2249 134.825 15.3103 135.124 15.3956C135.422 15.4809 135.662 15.5449 135.844 15.5876C136.025 15.6196 136.308 15.6783 136.692 15.7636C137.161 15.8596 137.55 15.9503 137.86 16.0356C138.169 16.1103 138.537 16.2383 138.964 16.4196C139.39 16.6009 139.726 16.8036 139.972 17.0276C140.228 17.2409 140.446 17.5289 140.628 17.8916C140.82 18.2543 140.916 18.6649 140.916 19.1236C140.916 19.9236 140.692 20.5956 140.244 21.1396C139.796 21.6729 139.252 22.0463 138.612 22.2596C137.972 22.4729 137.262 22.5796 136.484 22.5796C135.054 22.5796 133.908 22.2436 133.044 21.5716C132.19 20.8889 131.764 19.8863 131.764 18.5636H133.22C133.252 19.5343 133.577 20.2436 134.196 20.6916C134.814 21.1289 135.62 21.3476 136.612 21.3476C137.39 21.3476 138.057 21.1876 138.612 20.8676C139.166 20.5369 139.444 20.0036 139.444 19.2676C139.444 18.9263 139.369 18.6383 139.22 18.4036C139.07 18.1583 138.836 17.9609 138.516 17.8116C138.196 17.6516 137.876 17.5236 137.556 17.4276C137.236 17.3316 136.814 17.2249 136.292 17.1076C136.217 17.0969 136.164 17.0863 136.132 17.0756C134.958 16.8089 134.19 16.5956 133.828 16.4356C132.718 15.9556 132.164 15.1289 132.164 13.9556C132.164 12.8676 132.564 12.0569 133.364 11.5236C134.174 10.9796 135.15 10.7076 136.292 10.7076C137.54 10.7076 138.537 11.0063 139.284 11.6036C140.03 12.2009 140.425 13.0916 140.468 14.2756ZM150.683 10.9316V12.2436H146.859V22.3236H145.355V12.2436H141.531V10.9316H150.683ZM151.886 10.9316H153.406V18.1156C153.406 19.2249 153.646 20.0356 154.126 20.5476C154.606 21.0596 155.39 21.3156 156.478 21.3156C157.598 21.3156 158.387 21.0543 158.846 20.5316C159.315 20.0089 159.55 19.2036 159.55 18.1156V10.9316H161.07V17.7156C161.07 19.3796 160.723 20.6063 160.03 21.3956C159.337 22.1743 158.153 22.5636 156.478 22.5636C154.857 22.5636 153.683 22.1849 152.958 21.4276C152.243 20.6596 151.886 19.4756 151.886 17.8756V10.9316ZM163.513 10.9316H167.225C169.156 10.9316 170.58 11.3796 171.497 12.2756C172.414 13.1716 172.873 14.5903 172.873 16.5316C172.873 18.4409 172.446 19.8863 171.593 20.8676C170.74 21.8383 169.374 22.3236 167.497 22.3236H163.513V10.9316ZM165.017 12.2276V21.0276H167.305C168.734 21.0276 169.769 20.6809 170.409 19.9876C171.06 19.2836 171.385 18.1903 171.385 16.7076C171.385 15.1503 171.07 14.0143 170.441 13.2996C169.812 12.5849 168.745 12.2276 167.241 12.2276H165.017ZM183.883 10.9316L179.483 17.6676V22.3236H177.995V17.6676L173.563 10.9316H175.371L178.779 16.3556L182.155 10.9316H183.883Z" fill="#FF6D1B"/>
<path d="M199 17H343" stroke="#FF6D1B"/>
</svg>
