<svg width="343" height="290" viewBox="0 0 343 290" fill="none" xmlns="http://www.w3.org/2000/svg">
<rect width="343" height="290" fill="black"/>
<path d="M102.775 73.1703C102.46 72.2263 100.719 68.0406 95.5212 67.9874C94.4125 67.9761 93.0883 67.9931 91.7036 68.589C87.7115 70.307 88.6789 78.2837 91.1475 85.1908C91.8879 87.2627 93.0398 91.1135 93.0398 91.1135C99.7208 111.793 113.274 154.716 114.037 160.977C114.801 167.238 101.63 204.181 94.9487 221.87H147.251L155.65 194.764C158.131 184.584 164.545 169.605 170.348 191.137C174.055 204.893 180.973 213.097 187.078 217.56C192.4 221.45 199.249 221.87 205.842 221.87H234.867H241.274C246.727 221.87 253.067 220.747 254.516 215.49C254.578 215.266 254.633 215.037 254.681 214.802C254.828 214.092 254.91 213.33 254.91 212.516C254.91 210.977 254.614 209.717 254.151 208.696C252.448 204.946 247.494 204.881 243.376 204.881H206.163C199.764 204.881 193.553 202.637 190.483 197.022C183.241 183.775 175.214 158.637 170.818 143.905C168.523 136.214 165.685 128.691 163.067 121.104C156.867 103.136 158.539 94.5137 160.688 90.563C162.014 88.1263 164.913 87.4959 167.687 87.5136L223.244 87.8685C226.574 87.8685 229.114 88.9685 230.992 90.3534C234.808 93.1681 235.431 98.3216 235.374 103.063L235.079 127.567C235.079 127.567 235.079 134.63 242.905 134.63C248.25 134.63 249.268 129.921 249.777 127.567C249.968 125.34 250.617 115.885 250.159 95.8802C249.743 77.7461 236.988 73.9338 212.347 73.9338L160.749 74.2699C156.129 74.3 151.148 75.0097 148.364 78.6969C141.732 87.4807 143.15 103.969 145.215 110.584M102.775 73.1703C101.956 69.8967 105.276 65.2519 109.663 66.1021C111.416 66.4417 114.447 67.9096 115.755 70.307C116.612 71.8789 117.831 74.8881 119.29 78.8969M102.775 73.1703C102.864 73.439 104.314 78.094 106.52 85.1908C111.835 102.288 121.543 133.559 127.208 151.815M142.097 151.815C137.152 134.78 128.053 104.398 121.634 85.5726C120.803 83.1357 120.017 80.8924 119.29 78.8969M119.29 78.8969C117.666 75.6518 116.917 67.8202 124.154 67.062C124.617 66.9323 125.698 67.062 125.698 67.062C127.602 67.579 130.579 69.5279 132.744 74.5065C134.38 78.2686 139.592 93.6236 145.215 110.584M145.215 110.584C150.092 125.291 155.276 141.206 158.704 151.815L145.215 110.584ZM162.713 151.815H158.609H154.314M146.106 151.815H137.134M130.835 151.815H123.009" stroke="white" stroke-width="2.0622"/>
<path d="M91.2833 84.7891C99.6822 81.7349 97.7097 72.318 95.6736 67.9912C94.6555 67.6731 92.0849 67.6095 89.947 69.9001C87.8091 72.1907 89.947 80.7805 91.2833 84.7891Z" stroke="white" stroke-width="2.0622"/>
<path d="M106.586 83.7739C114.627 79.8731 111.698 70.7086 109.228 66.6139C108.183 66.402 105.619 66.6028 103.728 69.1009C101.836 71.599 104.845 79.9238 106.586 83.7739Z" stroke="white" stroke-width="2.0622"/>
<path d="M121.854 84.8937C129.917 81.0382 127.039 71.8573 124.592 67.7488C123.548 67.5311 120.983 67.7174 119.078 70.2048C117.173 72.6922 120.135 81.0338 121.854 84.8937Z" stroke="white" stroke-width="2.0622"/>
<path d="M237.502 221.926C237.824 214.72 244.126 212.719 249.035 212.556C251.065 212.488 253.059 213.719 252.987 215.749C252.955 216.652 252.714 217.675 252.108 218.743C250.563 221.469 241.727 222.001 237.502 221.926Z" stroke="white" stroke-width="2.0622"/>
<path d="M249.922 118.24C242.72 118.647 240.794 124.972 240.689 129.883C240.646 131.914 241.901 133.893 243.93 133.796C244.831 133.753 245.852 133.5 246.913 132.882C249.62 131.305 250.047 122.463 249.922 118.24Z" stroke="white" stroke-width="2.0622"/>
</svg>
