<svg width="1011" height="409" viewBox="0 0 1011 409" fill="none" xmlns="http://www.w3.org/2000/svg">
<rect width="1011" height="409" fill="black"/>
<path d="M387.168 120.569C386.739 119.28 384.361 113.562 377.26 113.49C375.746 113.474 373.937 113.498 372.046 114.312C366.593 116.658 367.914 127.554 371.286 136.988C372.298 139.818 373.871 145.078 373.871 145.078C382.997 173.325 401.509 231.956 402.552 240.508C403.595 249.06 385.604 299.521 376.478 323.682H447.92L459.392 286.658C462.782 272.752 471.542 252.293 479.469 281.704C484.533 300.494 493.981 311.699 502.321 317.796C509.59 323.11 518.946 323.682 527.95 323.682H567.597H576.349C583.797 323.682 592.457 322.149 594.436 314.969C594.52 314.663 594.596 314.349 594.662 314.028C594.862 313.058 594.975 312.017 594.975 310.906C594.975 308.803 594.571 307.082 593.937 305.688C591.612 300.566 584.845 300.477 579.22 300.477H528.389C519.649 300.477 511.164 297.412 506.972 289.742C496.062 269.787 483.847 230.073 478.421 211.462C476.463 204.747 474.259 198.114 472.016 191.489C458.847 152.588 463.929 140.125 470.082 140.125H597.843C600.276 140.125 605.248 138.404 605.665 131.52C605.716 130.683 605.679 129.899 605.572 129.166C605.423 127.858 604.624 125.539 602.656 123.531C600.012 120.833 595.916 120.569 592.139 120.569H580.373H465.468C459.058 120.569 452.098 121.541 448.41 126.783C439.686 139.18 442.326 162.664 445.139 171.674M387.168 120.569C386.051 116.098 390.585 109.753 396.578 110.915C398.971 111.378 403.112 113.384 404.898 116.658C406.07 118.805 407.734 122.916 409.727 128.391M387.168 120.569C387.291 120.936 389.271 127.295 392.284 136.988C399.544 160.343 412.804 203.056 420.543 227.992M440.88 227.992C434.125 204.724 421.697 163.224 412.928 137.51C411.793 134.181 410.719 131.117 409.727 128.391M409.727 128.391C407.509 123.959 406.485 113.261 416.371 112.226C417.004 112.049 418.479 112.226 418.479 112.226C421.08 112.932 425.147 115.594 428.104 122.394C430.338 127.533 437.459 148.507 445.139 171.674M445.139 171.674C451.8 191.763 458.882 213.501 463.564 227.992L445.139 171.674ZM469.039 227.992H463.434H457.567M446.355 227.992H434.101M425.497 227.992H414.806" stroke="white" stroke-width="2.81682"/>
<path d="M371.474 136.453C382.946 132.281 380.252 119.418 377.471 113.508C376.08 113.073 372.569 112.986 369.648 116.115C366.728 119.244 369.648 130.977 371.474 136.453Z" stroke="white" stroke-width="2.81682"/>
<path d="M392.375 135.066C403.358 129.737 399.357 117.219 395.983 111.626C394.555 111.337 391.053 111.611 388.47 115.023C385.887 118.436 389.997 129.807 392.375 135.066Z" stroke="white" stroke-width="2.81682"/>
<path d="M413.229 136.596C424.242 131.329 420.312 118.789 416.97 113.177C415.543 112.88 412.04 113.134 409.438 116.532C406.835 119.929 410.881 131.323 413.229 136.596Z" stroke="white" stroke-width="2.81682"/>
<path d="M581.858 120.934C583.407 131.363 593.421 132.733 600.211 131.919C602.096 131.693 603.776 130.425 603.837 128.527C603.885 127 603.504 125.116 602.149 123.212C599.667 119.725 587.587 120.24 581.858 120.934Z" stroke="white" stroke-width="2.81682"/>
<path d="M571.195 323.78C571.635 313.936 580.242 311.203 586.948 310.98C589.721 310.888 592.445 312.569 592.346 315.342C592.302 316.574 591.973 317.972 591.146 319.431C589.035 323.154 576.966 323.881 571.195 323.78Z" stroke="white" stroke-width="2.81682"/>
<path d="M91.4049 115.882C90.9751 114.593 88.597 108.875 81.4969 108.803C79.9824 108.787 78.1736 108.81 76.2822 109.624C70.8294 111.971 72.1507 122.867 75.5226 132.301C76.534 135.131 78.1074 140.391 78.1074 140.391C87.2331 168.638 105.745 227.268 106.788 235.82C107.831 244.373 89.8406 294.834 80.7148 318.995H152.156L163.629 281.971C167.018 268.065 175.779 247.606 183.705 277.017C188.769 295.807 198.218 307.012 206.557 313.108C213.827 318.422 223.182 318.995 232.187 318.995H271.834H280.585C288.033 318.995 296.694 317.462 298.673 310.281C298.757 309.976 298.833 309.662 298.899 309.341C299.098 308.371 299.211 307.33 299.211 306.219C299.211 304.116 298.807 302.395 298.174 301C295.848 295.879 289.082 295.79 283.457 295.79H232.626C223.885 295.79 215.401 292.724 211.208 285.055C201.316 266.961 190.351 232.624 184.347 212.501C181.212 201.995 177.336 191.72 173.76 181.356C165.291 156.813 167.575 145.036 170.511 139.639C172.321 136.311 176.282 135.45 180.071 135.474L255.957 135.959C260.507 135.959 263.976 137.461 266.54 139.353C271.753 143.198 272.604 150.237 272.526 156.714L272.123 190.184C272.123 190.184 272.123 199.832 282.813 199.832C290.114 199.832 291.504 193.4 292.2 190.184C292.46 187.142 293.347 174.227 292.721 146.902C292.154 122.132 274.73 116.925 241.073 116.925L170.594 117.384C164.283 117.425 157.48 118.395 153.677 123.431C144.618 135.429 146.555 157.952 149.376 166.986M91.4049 115.882C90.287 111.41 94.8219 105.066 100.814 106.227C103.208 106.691 107.349 108.696 109.135 111.971C110.306 114.118 111.97 118.228 113.964 123.704M91.4049 115.882C91.5272 116.249 93.5071 122.607 96.5206 132.301C103.781 155.655 117.04 198.369 124.779 223.305M145.116 223.305C138.361 200.037 125.934 158.537 117.165 132.823C116.03 129.494 114.956 126.43 113.964 123.704M113.964 123.704C111.746 119.272 110.722 108.574 120.607 107.539C121.24 107.361 122.716 107.539 122.716 107.539C125.317 108.245 129.384 110.907 132.34 117.707C134.575 122.846 141.695 143.82 149.376 166.986M149.376 166.986C156.036 187.076 163.118 208.814 167.8 223.305L149.376 166.986ZM173.276 223.305H167.67H161.803M150.592 223.305H138.337M129.733 223.305H119.043" stroke="white" stroke-width="2.81682"/>
<path d="M75.7074 131.753C87.1798 127.581 84.4855 114.718 81.7044 108.808C80.3137 108.373 76.8024 108.286 73.8822 111.415C70.9619 114.544 73.8823 126.277 75.7074 131.753Z" stroke="white" stroke-width="2.81682"/>
<path d="M96.6115 130.366C107.595 125.037 103.593 112.519 100.22 106.926C98.7919 106.637 95.2902 106.911 92.7068 110.323C90.1234 113.736 94.2335 125.107 96.6115 130.366Z" stroke="white" stroke-width="2.81682"/>
<path d="M117.466 131.896C128.479 126.629 124.548 114.089 121.206 108.477C119.78 108.18 116.277 108.434 113.674 111.832C111.072 115.229 115.118 126.623 117.466 131.896Z" stroke="white" stroke-width="2.81682"/>
<path d="M275.432 319.073C275.872 309.229 284.479 306.496 291.185 306.273C293.958 306.181 296.682 307.863 296.583 310.636C296.539 311.868 296.21 313.266 295.383 314.725C293.272 318.448 281.203 319.175 275.432 319.073Z" stroke="white" stroke-width="2.81682"/>
<path d="M292.398 177.444C282.56 178.001 279.93 186.639 279.787 193.348C279.728 196.122 281.441 198.825 284.213 198.693C285.445 198.634 286.838 198.289 288.287 197.445C291.985 195.29 292.569 183.213 292.398 177.444Z" stroke="white" stroke-width="2.81682"/>
<path d="M708.422 122.705C707.997 121.428 705.644 115.766 698.62 115.694C697.121 115.679 695.332 115.702 693.461 116.508C688.066 118.832 689.373 129.621 692.709 138.964C693.71 141.767 695.266 146.975 695.266 146.975C704.295 174.947 722.61 233.007 723.642 241.476C724.674 249.944 706.875 299.914 697.846 323.84H768.527L779.878 287.177C783.231 273.406 791.899 253.146 799.741 282.271C801.29 288.027 805.124 295.088 808.074 300.008C810.511 304.072 812.798 308.335 816.155 311.68C821.293 316.8 831.785 323.447 851.355 322.8C863.449 322.401 872.274 315.587 878.201 308.56C886.098 299.195 889.21 286.594 887.662 274.442C886.522 265.486 883.903 258.644 881.795 252.313C878.441 242.243 874.056 242.759 866.059 245.083C861.899 246.292 862.022 253.461 863.35 260.458C864.657 267.347 866.802 274.189 866.553 281.197C865.816 302.005 853.401 304.897 842.81 302.604C837.3 301.411 832.452 298.151 829.403 293.409C818.992 277.224 806.727 239.278 800.304 217.964C797.253 207.837 793.562 197.929 789.998 187.971C780.461 161.327 782.552 149.317 785.248 144.143C786.742 141.277 789.499 139.231 792.123 137.345C799.096 132.333 810.363 128.469 819.7 134.57C825.515 138.37 828.236 145.271 830.842 151.711C834.307 160.275 838.314 170.692 839.747 176.144C841.811 183.994 851.613 214.707 856.257 229.082C857.202 234.021 860.487 243.877 866.059 243.792C873.024 243.685 878.183 243.276 877.667 234.755C877.255 227.939 869.585 200.931 865.543 188.28L851.613 144.644C848.69 137.071 840.366 120.735 830.46 115.984C819.368 110.665 806.986 108.756 792.282 113.144C781.706 116.301 772.161 127.765 772.161 127.765C760.811 140.513 762.783 163.715 765.776 173.312M708.422 122.705C707.316 118.277 711.803 111.994 717.731 113.144C720.099 113.604 724.196 115.589 725.964 118.832C727.122 120.958 728.769 125.028 730.741 130.451M708.422 122.705C708.543 123.068 710.502 129.365 713.484 138.964C720.666 162.091 733.785 204.389 741.441 229.082M761.562 229.082C754.879 206.04 742.584 164.944 733.908 139.481C732.785 136.184 731.723 133.15 730.741 130.451M730.741 130.451C728.547 126.061 727.534 115.468 737.314 114.443C737.94 114.267 739.4 114.443 739.4 114.443C741.973 115.142 745.997 117.778 748.922 124.512C751.133 129.601 758.177 150.371 765.776 173.312M765.776 173.312C772.366 193.205 779.372 214.732 784.005 229.082L765.776 173.312ZM789.422 229.082H783.876H778.072M766.979 229.082H754.855M746.343 229.082H735.766" stroke="white" stroke-width="2.81682"/>
<path d="M874.469 220.354C866.255 223.627 865.751 231.313 867.219 237.413C868.114 241.134 871.799 243.987 874.999 241.888C875.634 241.471 876.266 240.935 876.866 240.251C879.638 237.095 876.423 225.671 874.469 220.354Z" stroke="white" stroke-width="2.81682"/>
<path d="M692.813 138.766C704.073 134.671 701.429 122.046 698.699 116.246C697.334 115.819 693.888 115.734 691.022 118.805C688.156 121.876 691.022 133.391 692.813 138.766Z" stroke="white" stroke-width="2.81682"/>
<path d="M712.19 135.388C723.45 131.294 720.806 118.669 718.076 112.868C716.711 112.442 713.265 112.356 710.399 115.427C707.533 118.498 710.399 130.014 712.19 135.388Z" stroke="white" stroke-width="2.81682"/>
<path d="M732.902 136.764C744.162 132.669 741.517 120.045 738.788 114.244C737.423 113.818 733.976 113.732 731.11 116.803C728.244 119.874 731.11 131.39 732.902 136.764Z" stroke="white" stroke-width="2.81682"/>
<path d="M884.868 261.948C873.139 264.39 868.745 252.263 868.014 245.894C868.951 244.813 871.837 242.927 875.89 244.031C879.943 245.134 883.564 256.435 884.868 261.948Z" stroke="white" stroke-width="2.81682"/>
</svg>
