<svg width="1358" height="49" viewBox="0 0 1358 49" fill="none" xmlns="http://www.w3.org/2000/svg">
<path d="M6 26L1357 25.9999" stroke="#FF6D1B" stroke-width="2"/>
<rect x="1" y="1" width="294" height="47" rx="23.5" fill="white"/>
<rect x="1" y="1" width="294" height="47" rx="23.5" stroke="#FF6D1B" stroke-width="2"/>
<path d="M33.728 15.912V17.88H24.152V23.232H33.104V25.128H24.152V31.032H33.848V33H21.896V15.912H33.728ZM48.9519 15.912L43.2639 24.192L49.2639 33H46.5279L41.9199 25.968L37.1439 33H34.5519L40.5759 24.192L34.9359 15.912H37.6479L41.9439 22.488L46.3839 15.912H48.9519ZM51.3358 15.912H58.3678C60.1118 15.912 61.4958 16.312 62.5198 17.112C63.5438 17.896 64.0558 19.136 64.0558 20.832C64.0558 24.272 62.1118 25.992 58.2238 25.992H53.5918V33H51.3358V15.912ZM53.5918 17.856V24.096H57.9358C59.1518 24.096 60.0958 23.872 60.7678 23.424C61.4558 22.96 61.7998 22.144 61.7998 20.976C61.7998 20.32 61.6878 19.776 61.4637 19.344C61.2558 18.912 60.9438 18.592 60.5278 18.384C60.1118 18.176 59.6798 18.04 59.2318 17.976C58.7838 17.896 58.2478 17.856 57.6238 17.856H53.5918ZM78.1543 31.032V33H66.8263V15.912H69.0823V31.032H78.1543ZM87.3382 15.504C89.9302 15.504 91.9462 16.32 93.3862 17.952C94.8262 19.568 95.5462 21.688 95.5462 24.312C95.5462 26.952 94.8342 29.128 93.4102 30.84C91.9862 32.552 89.9702 33.408 87.3622 33.408C86.0342 33.408 84.8422 33.168 83.7862 32.688C82.7302 32.208 81.8662 31.544 81.1942 30.696C80.5382 29.848 80.0342 28.88 79.6822 27.792C79.3462 26.704 79.1782 25.528 79.1782 24.264C79.1782 21.592 79.9142 19.464 81.3862 17.88C82.8742 16.296 84.8582 15.504 87.3382 15.504ZM87.3382 17.472C85.4342 17.472 83.9702 18.144 82.9462 19.488C81.9382 20.816 81.4342 22.464 81.4342 24.432C81.4342 26.576 81.9702 28.288 83.0422 29.568C84.1302 30.832 85.5782 31.464 87.3862 31.464C89.1782 31.464 90.6102 30.824 91.6822 29.544C92.7542 28.264 93.2902 26.56 93.2902 24.432C93.2902 22.32 92.7462 20.632 91.6582 19.368C90.5862 18.104 89.1462 17.472 87.3382 17.472ZM98.3726 15.912H105.885C109.709 15.912 111.621 17.488 111.621 20.64C111.621 21.632 111.349 22.512 110.805 23.28C110.277 24.032 109.573 24.536 108.693 24.792C109.269 24.92 109.733 25.104 110.085 25.344C110.437 25.584 110.693 25.92 110.853 26.352C111.013 26.784 111.117 27.168 111.165 27.504C111.213 27.84 111.253 28.336 111.285 28.992C111.285 29.056 111.293 29.216 111.309 29.472C111.325 29.712 111.333 29.88 111.333 29.976C111.333 30.056 111.341 30.208 111.357 30.432C111.389 30.656 111.413 30.824 111.429 30.936C111.445 31.048 111.469 31.2 111.501 31.392C111.533 31.584 111.573 31.744 111.621 31.872C111.669 31.984 111.725 32.12 111.789 32.28C111.853 32.424 111.925 32.56 112.005 32.688C112.085 32.8 112.173 32.904 112.269 33H109.677C109.565 32.84 109.469 32.64 109.389 32.4C109.325 32.16 109.277 31.88 109.245 31.56C109.213 31.224 109.189 30.96 109.173 30.768C109.157 30.56 109.141 30.264 109.125 29.88C109.109 29.496 109.101 29.28 109.101 29.232C109.021 27.776 108.717 26.808 108.189 26.328C107.677 25.848 106.653 25.608 105.117 25.608H100.629V33H98.3726V15.912ZM100.629 17.832V23.808H104.877C105.405 23.808 105.845 23.792 106.197 23.76C106.565 23.728 106.965 23.656 107.397 23.544C107.829 23.432 108.173 23.272 108.429 23.064C108.701 22.856 108.925 22.56 109.101 22.176C109.277 21.792 109.365 21.328 109.365 20.784C109.365 19.632 109.013 18.856 108.309 18.456C107.621 18.04 106.677 17.832 105.477 17.832H100.629ZM121.978 15.912L128.65 33H126.13L124.234 27.768H117.058L115.114 33H112.714L119.434 15.912H121.978ZM123.562 25.968L120.658 18.072L117.706 25.968H123.562ZM140.018 15.912V17.88H134.282V33H132.026V17.88H126.29V15.912H140.018ZM149.143 15.504C151.735 15.504 153.751 16.32 155.191 17.952C156.631 19.568 157.351 21.688 157.351 24.312C157.351 26.952 156.639 29.128 155.215 30.84C153.791 32.552 151.775 33.408 149.167 33.408C147.839 33.408 146.647 33.168 145.591 32.688C144.535 32.208 143.671 31.544 142.999 30.696C142.343 29.848 141.839 28.88 141.487 27.792C141.151 26.704 140.983 25.528 140.983 24.264C140.983 21.592 141.719 19.464 143.191 17.88C144.679 16.296 146.663 15.504 149.143 15.504ZM149.143 17.472C147.239 17.472 145.775 18.144 144.751 19.488C143.743 20.816 143.239 22.464 143.239 24.432C143.239 26.576 143.775 28.288 144.847 29.568C145.935 30.832 147.383 31.464 149.191 31.464C150.983 31.464 152.415 30.824 153.487 29.544C154.559 28.264 155.095 26.56 155.095 24.432C155.095 22.32 154.551 20.632 153.463 19.368C152.391 18.104 150.951 17.472 149.143 17.472ZM160.177 15.912H167.689C171.513 15.912 173.425 17.488 173.425 20.64C173.425 21.632 173.153 22.512 172.609 23.28C172.081 24.032 171.377 24.536 170.497 24.792C171.073 24.92 171.537 25.104 171.889 25.344C172.241 25.584 172.497 25.92 172.657 26.352C172.817 26.784 172.921 27.168 172.969 27.504C173.017 27.84 173.057 28.336 173.089 28.992C173.089 29.056 173.097 29.216 173.113 29.472C173.129 29.712 173.137 29.88 173.137 29.976C173.137 30.056 173.145 30.208 173.161 30.432C173.193 30.656 173.217 30.824 173.233 30.936C173.249 31.048 173.273 31.2 173.305 31.392C173.337 31.584 173.377 31.744 173.425 31.872C173.473 31.984 173.529 32.12 173.593 32.28C173.657 32.424 173.729 32.56 173.809 32.688C173.889 32.8 173.977 32.904 174.073 33H171.481C171.369 32.84 171.273 32.64 171.193 32.4C171.129 32.16 171.081 31.88 171.049 31.56C171.017 31.224 170.993 30.96 170.977 30.768C170.961 30.56 170.945 30.264 170.929 29.88C170.913 29.496 170.905 29.28 170.905 29.232C170.825 27.776 170.521 26.808 169.993 26.328C169.481 25.848 168.457 25.608 166.921 25.608H162.433V33H160.177V15.912ZM162.433 17.832V23.808H166.681C167.209 23.808 167.649 23.792 168.001 23.76C168.369 23.728 168.769 23.656 169.201 23.544C169.633 23.432 169.977 23.272 170.233 23.064C170.505 22.856 170.729 22.56 170.905 22.176C171.081 21.792 171.169 21.328 171.169 20.784C171.169 19.632 170.817 18.856 170.113 18.456C169.425 18.04 168.481 17.832 167.281 17.832H162.433ZM189.372 15.912L182.772 26.016V33H180.54V26.016L173.892 15.912H176.604L181.716 24.048L186.78 15.912H189.372ZM210.055 20.928H207.871C207.631 18.608 206.215 17.448 203.623 17.448C202.391 17.448 201.439 17.696 200.767 18.192C200.095 18.688 199.759 19.384 199.759 20.28C199.759 20.6 199.807 20.88 199.903 21.12C199.999 21.36 200.159 21.576 200.383 21.768C200.623 21.944 200.847 22.096 201.055 22.224C201.263 22.352 201.591 22.48 202.039 22.608C202.487 22.736 202.847 22.832 203.118 22.896C203.391 22.944 203.815 23.032 204.391 23.16C205.095 23.304 205.679 23.44 206.143 23.568C206.607 23.68 207.159 23.872 207.799 24.144C208.439 24.416 208.943 24.72 209.311 25.056C209.695 25.376 210.023 25.808 210.295 26.352C210.583 26.896 210.727 27.512 210.727 28.2C210.727 29.4 210.391 30.408 209.719 31.224C209.047 32.024 208.231 32.584 207.271 32.904C206.311 33.224 205.247 33.384 204.079 33.384C201.935 33.384 200.215 32.88 198.919 31.872C197.639 30.848 196.999 29.344 196.999 27.36H199.183C199.231 28.816 199.719 29.88 200.647 30.552C201.575 31.208 202.783 31.536 204.271 31.536C205.439 31.536 206.439 31.296 207.271 30.816C208.103 30.32 208.519 29.52 208.519 28.416C208.519 27.904 208.407 27.472 208.182 27.12C207.959 26.752 207.607 26.456 207.127 26.232C206.647 25.992 206.167 25.8 205.687 25.656C205.207 25.512 204.575 25.352 203.791 25.176C203.679 25.16 203.599 25.144 203.551 25.128C201.791 24.728 200.639 24.408 200.095 24.168C198.431 23.448 197.599 22.208 197.599 20.448C197.599 18.816 198.199 17.6 199.399 16.8C200.615 15.984 202.079 15.576 203.791 15.576C205.663 15.576 207.159 16.024 208.279 16.92C209.399 17.816 209.991 19.152 210.055 20.928ZM225.377 15.912V17.88H219.641V33H217.385V17.88H211.649V15.912H225.377ZM227.182 15.912H229.462V26.688C229.462 28.352 229.822 29.568 230.542 30.336C231.262 31.104 232.438 31.488 234.07 31.488C235.75 31.488 236.934 31.096 237.622 30.312C238.326 29.528 238.678 28.32 238.678 26.688V15.912H240.958V26.088C240.958 28.584 240.438 30.424 239.398 31.608C238.358 32.776 236.582 33.36 234.07 33.36C231.638 33.36 229.878 32.792 228.79 31.656C227.718 30.504 227.182 28.728 227.182 26.328V15.912ZM244.623 15.912H250.191C253.087 15.912 255.223 16.584 256.599 17.928C257.975 19.272 258.663 21.4 258.663 24.312C258.663 27.176 258.023 29.344 256.743 30.816C255.463 32.272 253.415 33 250.599 33H244.623V15.912ZM246.879 17.856V31.056H250.311C252.455 31.056 254.007 30.536 254.967 29.496C255.943 28.44 256.431 26.8 256.431 24.576C256.431 22.24 255.959 20.536 255.015 19.464C254.071 18.392 252.471 17.856 250.215 17.856H246.879ZM275.177 15.912L268.577 26.016V33H266.345V26.016L259.697 15.912H262.409L267.521 24.048L272.585 15.912H275.177Z" fill="#FF6D1B"/>
<rect x="799" y="1" width="249" height="47" rx="23.5" fill="white"/>
<rect x="799" y="1" width="249" height="47" rx="23.5" stroke="#FF6D1B" stroke-width="2"/>
<path d="M822.248 15.912V33H819.992V15.912H822.248ZM826.107 15.912H831.675C834.571 15.912 836.707 16.584 838.083 17.928C839.459 19.272 840.147 21.4 840.147 24.312C840.147 27.176 839.507 29.344 838.227 30.816C836.947 32.272 834.899 33 832.083 33H826.107V15.912ZM828.363 17.856V31.056H831.795C833.939 31.056 835.491 30.536 836.451 29.496C837.427 28.44 837.915 26.8 837.915 24.576C837.915 22.24 837.443 20.536 836.499 19.464C835.555 18.392 833.955 17.856 831.699 17.856H828.363ZM854.837 15.912V17.88H845.261V23.232H854.213V25.128H845.261V31.032H854.957V33H843.005V15.912H854.837ZM864.853 15.912L871.525 33H869.005L867.109 27.768H859.933L857.989 33H855.589L862.309 15.912H864.853ZM866.437 25.968L863.533 18.072L860.581 25.968H866.437ZM885.336 20.928H883.152C882.912 18.608 881.496 17.448 878.904 17.448C877.672 17.448 876.72 17.696 876.048 18.192C875.376 18.688 875.04 19.384 875.04 20.28C875.04 20.6 875.088 20.88 875.184 21.12C875.28 21.36 875.44 21.576 875.664 21.768C875.904 21.944 876.128 22.096 876.336 22.224C876.544 22.352 876.872 22.48 877.32 22.608C877.768 22.736 878.128 22.832 878.4 22.896C878.672 22.944 879.096 23.032 879.672 23.16C880.376 23.304 880.96 23.44 881.424 23.568C881.888 23.68 882.44 23.872 883.08 24.144C883.72 24.416 884.224 24.72 884.592 25.056C884.976 25.376 885.304 25.808 885.576 26.352C885.864 26.896 886.008 27.512 886.008 28.2C886.008 29.4 885.672 30.408 885 31.224C884.328 32.024 883.512 32.584 882.552 32.904C881.592 33.224 880.528 33.384 879.36 33.384C877.216 33.384 875.496 32.88 874.2 31.872C872.92 30.848 872.28 29.344 872.28 27.36H874.464C874.512 28.816 875 29.88 875.928 30.552C876.856 31.208 878.064 31.536 879.552 31.536C880.72 31.536 881.72 31.296 882.552 30.816C883.384 30.32 883.8 29.52 883.8 28.416C883.8 27.904 883.688 27.472 883.464 27.12C883.24 26.752 882.888 26.456 882.408 26.232C881.928 25.992 881.448 25.8 880.968 25.656C880.488 25.512 879.856 25.352 879.072 25.176C878.96 25.16 878.88 25.144 878.832 25.128C877.072 24.728 875.92 24.408 875.376 24.168C873.712 23.448 872.88 22.208 872.88 20.448C872.88 18.816 873.48 17.6 874.68 16.8C875.896 15.984 877.36 15.576 879.072 15.576C880.944 15.576 882.44 16.024 883.56 16.92C884.68 17.816 885.272 19.152 885.336 20.928ZM893.538 15.912H896.034L900.954 30.792L905.922 15.912H908.298L902.202 33H899.61L893.538 15.912ZM916.228 15.912L922.9 33H920.38L918.484 27.768H911.308L909.364 33H906.964L913.684 15.912H916.228ZM917.812 25.968L914.908 18.072L911.956 25.968H917.812ZM935.967 31.032V33H924.639V15.912H926.895V31.032H935.967ZM940.303 15.912V33H938.047V15.912H940.303ZM944.162 15.912H949.73C952.626 15.912 954.762 16.584 956.138 17.928C957.514 19.272 958.202 21.4 958.202 24.312C958.202 27.176 957.562 29.344 956.282 30.816C955.002 32.272 952.954 33 950.138 33H944.162V15.912ZM946.418 17.856V31.056H949.85C951.994 31.056 953.546 30.536 954.506 29.496C955.482 28.44 955.97 26.8 955.97 24.576C955.97 22.24 955.498 20.536 954.554 19.464C953.61 18.392 952.01 17.856 949.754 17.856H946.418ZM968.236 15.912L974.908 33H972.388L970.492 27.768H963.316L961.372 33H958.972L965.692 15.912H968.236ZM969.82 25.968L966.916 18.072L963.964 25.968H969.82ZM986.275 15.912V17.88H980.539V33H978.283V17.88H972.547V15.912H986.275ZM990.553 15.912V33H988.297V15.912H990.553ZM1001.61 15.504C1004.2 15.504 1006.22 16.32 1007.66 17.952C1009.1 19.568 1009.82 21.688 1009.82 24.312C1009.82 26.952 1009.11 29.128 1007.68 30.84C1006.26 32.552 1004.24 33.408 1001.64 33.408C1000.31 33.408 999.116 33.168 998.06 32.688C997.004 32.208 996.14 31.544 995.468 30.696C994.812 29.848 994.308 28.88 993.956 27.792C993.62 26.704 993.452 25.528 993.452 24.264C993.452 21.592 994.188 19.464 995.66 17.88C997.148 16.296 999.132 15.504 1001.61 15.504ZM1001.61 17.472C999.708 17.472 998.244 18.144 997.22 19.488C996.212 20.816 995.708 22.464 995.708 24.432C995.708 26.576 996.244 28.288 997.316 29.568C998.404 30.832 999.852 31.464 1001.66 31.464C1003.45 31.464 1004.88 30.824 1005.96 29.544C1007.03 28.264 1007.56 26.56 1007.56 24.432C1007.56 22.32 1007.02 20.632 1005.93 19.368C1004.86 18.104 1003.42 17.472 1001.61 17.472ZM1012.55 15.912H1015.02L1024.05 29.784V15.912H1026.23V33H1023.69L1014.71 19.296V33H1012.55V15.912Z" fill="#FF6D1B"/>
<rect x="1168" y="1" width="189" height="47" rx="23.5" fill="white"/>
<rect x="1168" y="1" width="189" height="47" rx="23.5" stroke="#FF6D1B" stroke-width="2"/>
<path d="M1188.9 15.912H1196.41C1200.23 15.912 1202.14 17.488 1202.14 20.64C1202.14 21.632 1201.87 22.512 1201.33 23.28C1200.8 24.032 1200.1 24.536 1199.22 24.792C1199.79 24.92 1200.26 25.104 1200.61 25.344C1200.96 25.584 1201.22 25.92 1201.38 26.352C1201.54 26.784 1201.64 27.168 1201.69 27.504C1201.74 27.84 1201.78 28.336 1201.81 28.992C1201.81 29.056 1201.82 29.216 1201.83 29.472C1201.85 29.712 1201.86 29.88 1201.86 29.976C1201.86 30.056 1201.86 30.208 1201.88 30.432C1201.91 30.656 1201.94 30.824 1201.95 30.936C1201.97 31.048 1201.99 31.2 1202.02 31.392C1202.06 31.584 1202.1 31.744 1202.14 31.872C1202.19 31.984 1202.25 32.12 1202.31 32.28C1202.38 32.424 1202.45 32.56 1202.53 32.688C1202.61 32.8 1202.7 32.904 1202.79 33H1200.2C1200.09 32.84 1199.99 32.64 1199.91 32.4C1199.85 32.16 1199.8 31.88 1199.77 31.56C1199.74 31.224 1199.71 30.96 1199.7 30.768C1199.68 30.56 1199.66 30.264 1199.65 29.88C1199.63 29.496 1199.62 29.28 1199.62 29.232C1199.54 27.776 1199.24 26.808 1198.71 26.328C1198.2 25.848 1197.18 25.608 1195.64 25.608H1191.15V33H1188.9V15.912ZM1191.15 17.832V23.808H1195.4C1195.93 23.808 1196.37 23.792 1196.72 23.76C1197.09 23.728 1197.49 23.656 1197.92 23.544C1198.35 23.432 1198.7 23.272 1198.95 23.064C1199.22 22.856 1199.45 22.56 1199.62 22.176C1199.8 21.792 1199.89 21.328 1199.89 20.784C1199.89 19.632 1199.54 18.856 1198.83 18.456C1198.14 18.04 1197.2 17.832 1196 17.832H1191.15ZM1217.16 15.912V17.88H1207.58V23.232H1216.53V25.128H1207.58V31.032H1217.28V33H1205.33V15.912H1217.16ZM1227.17 15.912L1233.85 33H1231.33L1229.43 27.768H1222.25L1220.31 33H1217.91L1224.63 15.912H1227.17ZM1228.76 25.968L1225.85 18.072L1222.9 25.968H1228.76ZM1246.91 31.032V33H1235.58V15.912H1237.84V31.032H1246.91ZM1251.25 15.912V33H1248.99V15.912H1251.25ZM1267.2 20.928H1265.02C1264.78 18.608 1263.36 17.448 1260.77 17.448C1259.54 17.448 1258.59 17.696 1257.91 18.192C1257.24 18.688 1256.91 19.384 1256.91 20.28C1256.91 20.6 1256.95 20.88 1257.05 21.12C1257.15 21.36 1257.31 21.576 1257.53 21.768C1257.77 21.944 1257.99 22.096 1258.2 22.224C1258.41 22.352 1258.74 22.48 1259.19 22.608C1259.63 22.736 1259.99 22.832 1260.27 22.896C1260.54 22.944 1260.96 23.032 1261.54 23.16C1262.24 23.304 1262.83 23.44 1263.29 23.568C1263.75 23.68 1264.31 23.872 1264.95 24.144C1265.59 24.416 1266.09 24.72 1266.46 25.056C1266.84 25.376 1267.17 25.808 1267.44 26.352C1267.73 26.896 1267.87 27.512 1267.87 28.2C1267.87 29.4 1267.54 30.408 1266.87 31.224C1266.19 32.024 1265.38 32.584 1264.42 32.904C1263.46 33.224 1262.39 33.384 1261.23 33.384C1259.08 33.384 1257.36 32.88 1256.07 31.872C1254.79 30.848 1254.15 29.344 1254.15 27.36H1256.33C1256.38 28.816 1256.87 29.88 1257.79 30.552C1258.72 31.208 1259.93 31.536 1261.42 31.536C1262.59 31.536 1263.59 31.296 1264.42 30.816C1265.25 30.32 1265.67 29.52 1265.67 28.416C1265.67 27.904 1265.55 27.472 1265.33 27.12C1265.11 26.752 1264.75 26.456 1264.27 26.232C1263.79 25.992 1263.31 25.8 1262.83 25.656C1262.35 25.512 1261.72 25.352 1260.94 25.176C1260.83 25.16 1260.75 25.144 1260.7 25.128C1258.94 24.728 1257.79 24.408 1257.24 24.168C1255.58 23.448 1254.75 22.208 1254.75 20.448C1254.75 18.816 1255.35 17.6 1256.55 16.8C1257.76 15.984 1259.23 15.576 1260.94 15.576C1262.81 15.576 1264.31 16.024 1265.43 16.92C1266.55 17.816 1267.14 19.152 1267.2 20.928ZM1277.85 15.912L1284.52 33H1282L1280.1 27.768H1272.93L1270.98 33H1268.58L1275.3 15.912H1277.85ZM1279.43 25.968L1276.53 18.072L1273.57 25.968H1279.43ZM1295.88 15.912V17.88H1290.15V33H1287.89V17.88H1282.16V15.912H1295.88ZM1300.16 15.912V33H1297.91V15.912H1300.16ZM1311.22 15.504C1313.81 15.504 1315.83 16.32 1317.27 17.952C1318.71 19.568 1319.43 21.688 1319.43 24.312C1319.43 26.952 1318.72 29.128 1317.29 30.84C1315.87 32.552 1313.85 33.408 1311.25 33.408C1309.92 33.408 1308.73 33.168 1307.67 32.688C1306.61 32.208 1305.75 31.544 1305.08 30.696C1304.42 29.848 1303.92 28.88 1303.57 27.792C1303.23 26.704 1303.06 25.528 1303.06 24.264C1303.06 21.592 1303.8 19.464 1305.27 17.88C1306.76 16.296 1308.74 15.504 1311.22 15.504ZM1311.22 17.472C1309.32 17.472 1307.85 18.144 1306.83 19.488C1305.82 20.816 1305.32 22.464 1305.32 24.432C1305.32 26.576 1305.85 28.288 1306.93 29.568C1308.01 30.832 1309.46 31.464 1311.27 31.464C1313.06 31.464 1314.49 30.824 1315.57 29.544C1316.64 28.264 1317.17 26.56 1317.17 24.432C1317.17 22.32 1316.63 20.632 1315.54 19.368C1314.47 18.104 1313.03 17.472 1311.22 17.472ZM1322.16 15.912H1324.63L1333.66 29.784V15.912H1335.84V33H1333.3L1324.32 19.296V33H1322.16V15.912Z" fill="#FF6D1B"/>
<rect x="414" width="266" height="49" rx="24.5" fill="#FF6D1B"/>
<path d="M438.248 15.912V33H435.992V15.912H438.248ZM442.107 15.912H447.675C450.571 15.912 452.707 16.584 454.083 17.928C455.459 19.272 456.147 21.4 456.147 24.312C456.147 27.176 455.507 29.344 454.227 30.816C452.947 32.272 450.899 33 448.083 33H442.107V15.912ZM444.363 17.856V31.056H447.795C449.939 31.056 451.491 30.536 452.451 29.496C453.427 28.44 453.915 26.8 453.915 24.576C453.915 22.24 453.443 20.536 452.499 19.464C451.555 18.392 449.955 17.856 447.699 17.856H444.363ZM470.837 15.912V17.88H461.261V23.232H470.213V25.128H461.261V31.032H470.957V33H459.005V15.912H470.837ZM480.853 15.912L487.525 33H485.005L483.109 27.768H475.933L473.989 33H471.589L478.309 15.912H480.853ZM482.437 25.968L479.533 18.072L476.581 25.968H482.437ZM501.336 20.928H499.152C498.912 18.608 497.496 17.448 494.904 17.448C493.672 17.448 492.72 17.696 492.048 18.192C491.376 18.688 491.04 19.384 491.04 20.28C491.04 20.6 491.088 20.88 491.184 21.12C491.28 21.36 491.44 21.576 491.664 21.768C491.904 21.944 492.128 22.096 492.336 22.224C492.544 22.352 492.872 22.48 493.32 22.608C493.768 22.736 494.128 22.832 494.4 22.896C494.672 22.944 495.096 23.032 495.672 23.16C496.376 23.304 496.96 23.44 497.424 23.568C497.888 23.68 498.44 23.872 499.08 24.144C499.72 24.416 500.224 24.72 500.592 25.056C500.976 25.376 501.304 25.808 501.576 26.352C501.864 26.896 502.008 27.512 502.008 28.2C502.008 29.4 501.672 30.408 501 31.224C500.328 32.024 499.512 32.584 498.552 32.904C497.592 33.224 496.528 33.384 495.36 33.384C493.216 33.384 491.496 32.88 490.2 31.872C488.92 30.848 488.28 29.344 488.28 27.36H490.464C490.512 28.816 491 29.88 491.928 30.552C492.856 31.208 494.064 31.536 495.552 31.536C496.72 31.536 497.72 31.296 498.552 30.816C499.384 30.32 499.8 29.52 499.8 28.416C499.8 27.904 499.688 27.472 499.464 27.12C499.24 26.752 498.888 26.456 498.408 26.232C497.928 25.992 497.448 25.8 496.968 25.656C496.488 25.512 495.856 25.352 495.072 25.176C494.96 25.16 494.88 25.144 494.832 25.128C493.072 24.728 491.92 24.408 491.376 24.168C489.712 23.448 488.88 22.208 488.88 20.448C488.88 18.816 489.48 17.6 490.68 16.8C491.896 15.984 493.36 15.576 495.072 15.576C496.944 15.576 498.44 16.024 499.56 16.92C500.68 17.816 501.272 19.152 501.336 20.928ZM526.314 23.952V33H524.874L524.298 30.864C522.922 32.56 521.082 33.408 518.778 33.408C516.346 33.408 514.378 32.6 512.874 30.984C511.386 29.352 510.642 27.224 510.642 24.6C510.642 21.992 511.378 19.832 512.85 18.12C514.338 16.408 516.37 15.552 518.946 15.552C520.13 15.552 521.234 15.76 522.258 16.176C523.282 16.576 524.154 17.216 524.874 18.096C525.594 18.96 526.002 19.984 526.098 21.168H523.89C523.714 20.048 523.17 19.152 522.258 18.48C521.362 17.792 520.258 17.448 518.946 17.448C517.09 17.448 515.618 18.088 514.53 19.368C513.442 20.632 512.898 22.352 512.898 24.528C512.898 26.672 513.442 28.376 514.53 29.64C515.618 30.904 517.082 31.536 518.922 31.536C520.65 31.536 521.962 31.016 522.858 29.976C523.77 28.92 524.25 27.528 524.298 25.8H518.826V23.952H526.314ZM541.525 15.912V17.88H531.949V23.232H540.901V25.128H531.949V31.032H541.645V33H529.693V15.912H541.525ZM544.269 15.912H546.741L555.765 29.784V15.912H557.949V33H555.405L546.429 19.296V33H544.269V15.912ZM573.517 15.912V17.88H563.941V23.232H572.893V25.128H563.941V31.032H573.637V33H561.685V15.912H573.517ZM576.357 15.912H583.869C587.693 15.912 589.605 17.488 589.605 20.64C589.605 21.632 589.333 22.512 588.789 23.28C588.261 24.032 587.557 24.536 586.677 24.792C587.253 24.92 587.717 25.104 588.069 25.344C588.421 25.584 588.677 25.92 588.837 26.352C588.997 26.784 589.101 27.168 589.149 27.504C589.197 27.84 589.237 28.336 589.269 28.992C589.269 29.056 589.277 29.216 589.293 29.472C589.309 29.712 589.317 29.88 589.317 29.976C589.317 30.056 589.325 30.208 589.341 30.432C589.373 30.656 589.397 30.824 589.413 30.936C589.429 31.048 589.453 31.2 589.485 31.392C589.517 31.584 589.557 31.744 589.605 31.872C589.653 31.984 589.709 32.12 589.773 32.28C589.837 32.424 589.909 32.56 589.989 32.688C590.069 32.8 590.157 32.904 590.253 33H587.661C587.549 32.84 587.453 32.64 587.373 32.4C587.309 32.16 587.261 31.88 587.229 31.56C587.197 31.224 587.173 30.96 587.157 30.768C587.141 30.56 587.125 30.264 587.109 29.88C587.093 29.496 587.085 29.28 587.085 29.232C587.005 27.776 586.701 26.808 586.173 26.328C585.661 25.848 584.637 25.608 583.101 25.608H578.613V33H576.357V15.912ZM578.613 17.832V23.808H582.861C583.389 23.808 583.829 23.792 584.181 23.76C584.549 23.728 584.949 23.656 585.381 23.544C585.813 23.432 586.157 23.272 586.413 23.064C586.685 22.856 586.909 22.56 587.085 22.176C587.261 21.792 587.349 21.328 587.349 20.784C587.349 19.632 586.997 18.856 586.293 18.456C585.605 18.04 584.661 17.832 583.461 17.832H578.613ZM599.963 15.912L606.635 33H604.115L602.219 27.768H595.043L593.099 33H590.699L597.419 15.912H599.963ZM601.547 25.968L598.643 18.072L595.691 25.968H601.547ZM618.002 15.912V17.88H612.266V33H610.01V17.88H604.274V15.912H618.002ZM622.279 15.912V33H620.023V15.912H622.279ZM633.338 15.504C635.93 15.504 637.946 16.32 639.386 17.952C640.826 19.568 641.546 21.688 641.546 24.312C641.546 26.952 640.834 29.128 639.41 30.84C637.986 32.552 635.97 33.408 633.362 33.408C632.034 33.408 630.842 33.168 629.786 32.688C628.73 32.208 627.866 31.544 627.194 30.696C626.538 29.848 626.034 28.88 625.682 27.792C625.346 26.704 625.178 25.528 625.178 24.264C625.178 21.592 625.914 19.464 627.386 17.88C628.874 16.296 630.858 15.504 633.338 15.504ZM633.338 17.472C631.434 17.472 629.97 18.144 628.946 19.488C627.938 20.816 627.434 22.464 627.434 24.432C627.434 26.576 627.97 28.288 629.042 29.568C630.13 30.832 631.578 31.464 633.386 31.464C635.178 31.464 636.61 30.824 637.682 29.544C638.754 28.264 639.29 26.56 639.29 24.432C639.29 22.32 638.746 20.632 637.658 19.368C636.586 18.104 635.146 17.472 633.338 17.472ZM644.277 15.912H646.749L655.773 29.784V15.912H657.957V33H655.413L646.437 19.296V33H644.277V15.912Z" fill="white"/>
</svg>
