<svg width="343" height="34" viewBox="0 0 343 34" fill="none" xmlns="http://www.w3.org/2000/svg">
<rect x="0.688235" y="0.966312" width="177.153" height="31.8294" rx="15.9147" stroke="#FF6D1B" stroke-width="1.37647"/>
<path d="M16.5966 11.2097V22.6017H15.0926V11.2097H16.5966ZM19.1692 11.2097H22.8812C24.8119 11.2097 26.2359 11.6577 27.1532 12.5537C28.0705 13.4497 28.5292 14.8684 28.5292 16.8097C28.5292 18.719 28.1025 20.1644 27.2492 21.1457C26.3959 22.1164 25.0305 22.6017 23.1532 22.6017H19.1692V11.2097ZM20.6732 12.5057V21.3057H22.9612C24.3905 21.3057 25.4252 20.959 26.0652 20.2657C26.7159 19.5617 27.0412 18.4684 27.0412 16.9857C27.0412 15.4284 26.7265 14.2924 26.0972 13.5777C25.4679 12.863 24.4012 12.5057 22.8972 12.5057H20.6732ZM38.3228 11.2097V12.5217H31.9388V16.0897H37.9068V17.3537H31.9388V21.2897H38.4028V22.6017H30.4348V11.2097H38.3228ZM45.0001 11.2097L49.4481 22.6017H47.7681L46.5041 19.1137H41.7201L40.4241 22.6017H38.8241L43.3041 11.2097H45.0001ZM46.0561 17.9137L44.1201 12.6497L42.1521 17.9137H46.0561ZM58.6551 14.5537H57.1991C57.0391 13.007 56.0951 12.2337 54.3671 12.2337C53.5458 12.2337 52.9111 12.399 52.4631 12.7297C52.0151 13.0604 51.7911 13.5244 51.7911 14.1217C51.7911 14.335 51.8231 14.5217 51.8871 14.6817C51.9511 14.8417 52.0578 14.9857 52.2071 15.1137C52.3671 15.231 52.5164 15.3324 52.6551 15.4177C52.7938 15.503 53.0124 15.5884 53.3111 15.6737C53.6098 15.759 53.8498 15.823 54.0311 15.8657C54.2124 15.8977 54.4951 15.9564 54.8791 16.0417C55.3484 16.1377 55.7378 16.2284 56.0471 16.3137C56.3564 16.3884 56.7244 16.5164 57.1511 16.6977C57.5778 16.879 57.9138 17.0817 58.1591 17.3057C58.4151 17.519 58.6338 17.807 58.8151 18.1697C59.0071 18.5324 59.1031 18.943 59.1031 19.4017C59.1031 20.2017 58.8791 20.8737 58.4311 21.4177C57.9831 21.951 57.4391 22.3244 56.7991 22.5377C56.1591 22.751 55.4498 22.8577 54.6711 22.8577C53.2418 22.8577 52.0951 22.5217 51.2311 21.8497C50.3778 21.167 49.9511 20.1644 49.9511 18.8417H51.4071C51.4391 19.8124 51.7644 20.5217 52.3831 20.9697C53.0018 21.407 53.8071 21.6257 54.7991 21.6257C55.5778 21.6257 56.2444 21.4657 56.7991 21.1457C57.3538 20.815 57.6311 20.2817 57.6311 19.5457C57.6311 19.2044 57.5564 18.9164 57.4071 18.6817C57.2578 18.4364 57.0231 18.239 56.7031 18.0897C56.3831 17.9297 56.0631 17.8017 55.7431 17.7057C55.4231 17.6097 55.0018 17.503 54.4791 17.3857C54.4044 17.375 54.3511 17.3644 54.3191 17.3537C53.1458 17.087 52.3778 16.8737 52.0151 16.7137C50.9058 16.2337 50.3511 15.407 50.3511 14.2337C50.3511 13.1457 50.7511 12.335 51.5511 11.8017C52.3618 11.2577 53.3378 10.9857 54.4791 10.9857C55.7271 10.9857 56.7244 11.2844 57.4711 11.8817C58.2178 12.479 58.6124 13.3697 58.6551 14.5537ZM75.3072 16.5697V22.6017H74.3472L73.9632 21.1777C73.0459 22.3084 71.8192 22.8737 70.2832 22.8737C68.6619 22.8737 67.3499 22.335 66.3472 21.2577C65.3552 20.1697 64.8592 18.751 64.8592 17.0017C64.8592 15.263 65.3499 13.823 66.3312 12.6817C67.3232 11.5404 68.6779 10.9697 70.3952 10.9697C71.1845 10.9697 71.9205 11.1084 72.6032 11.3857C73.2859 11.6524 73.8672 12.079 74.3472 12.6657C74.8272 13.2417 75.0992 13.9244 75.1632 14.7137H73.6912C73.5739 13.967 73.2112 13.3697 72.6032 12.9217C72.0059 12.463 71.2699 12.2337 70.3952 12.2337C69.1579 12.2337 68.1765 12.6604 67.4512 13.5137C66.7259 14.3564 66.3632 15.503 66.3632 16.9537C66.3632 18.383 66.7259 19.519 67.4512 20.3617C68.1765 21.2044 69.1525 21.6257 70.3792 21.6257C71.5312 21.6257 72.4059 21.279 73.0032 20.5857C73.6112 19.8817 73.9312 18.9537 73.9632 17.8017H70.3152V16.5697H75.3072ZM85.4478 11.2097V12.5217H79.0638V16.0897H85.0318V17.3537H79.0638V21.2897H85.5278V22.6017H77.5598V11.2097H85.4478ZM87.2771 11.2097H88.9251L94.9411 20.4577V11.2097H96.3971V22.6017H94.7011L88.7171 13.4657V22.6017H87.2771V11.2097ZM106.776 11.2097V12.5217H100.392V16.0897H106.36V17.3537H100.392V21.2897H106.856V22.6017H98.888V11.2097H106.776ZM108.669 11.2097H113.677C116.227 11.2097 117.501 12.2604 117.501 14.3617C117.501 15.023 117.32 15.6097 116.957 16.1217C116.605 16.623 116.136 16.959 115.549 17.1297C115.933 17.215 116.243 17.3377 116.477 17.4977C116.712 17.6577 116.883 17.8817 116.989 18.1697C117.096 18.4577 117.165 18.7137 117.197 18.9377C117.229 19.1617 117.256 19.4924 117.277 19.9297C117.277 19.9724 117.283 20.079 117.293 20.2497C117.304 20.4097 117.309 20.5217 117.309 20.5857C117.309 20.639 117.315 20.7404 117.325 20.8897C117.347 21.039 117.363 21.151 117.373 21.2257C117.384 21.3004 117.4 21.4017 117.421 21.5297C117.443 21.6577 117.469 21.7644 117.501 21.8497C117.533 21.9244 117.571 22.015 117.613 22.1217C117.656 22.2177 117.704 22.3084 117.757 22.3937C117.811 22.4684 117.869 22.5377 117.933 22.6017H116.205C116.131 22.495 116.067 22.3617 116.013 22.2017C115.971 22.0417 115.939 21.855 115.917 21.6417C115.896 21.4177 115.88 21.2417 115.869 21.1137C115.859 20.975 115.848 20.7777 115.837 20.5217C115.827 20.2657 115.821 20.1217 115.821 20.0897C115.768 19.119 115.565 18.4737 115.213 18.1537C114.872 17.8337 114.189 17.6737 113.165 17.6737H110.173V22.6017H108.669V11.2097ZM110.173 12.4897V16.4737H113.005C113.357 16.4737 113.651 16.463 113.885 16.4417C114.131 16.4204 114.397 16.3724 114.685 16.2977C114.973 16.223 115.203 16.1164 115.373 15.9777C115.555 15.839 115.704 15.6417 115.821 15.3857C115.939 15.1297 115.997 14.8204 115.997 14.4577C115.997 13.6897 115.763 13.1724 115.293 12.9057C114.835 12.6284 114.205 12.4897 113.405 12.4897H110.173ZM124.406 11.2097L128.854 22.6017H127.174L125.91 19.1137H121.126L119.83 22.6017H118.23L122.71 11.2097H124.406ZM125.462 17.9137L123.526 12.6497L121.558 17.9137H125.462ZM136.433 11.2097V12.5217H132.609V22.6017H131.105V12.5217H127.281V11.2097H136.433ZM139.284 11.2097V22.6017H137.78V11.2097H139.284ZM146.657 10.9377C148.385 10.9377 149.729 11.4817 150.689 12.5697C151.649 13.647 152.129 15.0604 152.129 16.8097C152.129 18.5697 151.654 20.0204 150.705 21.1617C149.755 22.303 148.411 22.8737 146.673 22.8737C145.787 22.8737 144.993 22.7137 144.289 22.3937C143.585 22.0737 143.009 21.631 142.561 21.0657C142.123 20.5004 141.787 19.855 141.553 19.1297C141.329 18.4044 141.217 17.6204 141.217 16.7777C141.217 14.9964 141.707 13.5777 142.689 12.5217C143.681 11.4657 145.003 10.9377 146.657 10.9377ZM146.657 12.2497C145.387 12.2497 144.411 12.6977 143.729 13.5937C143.057 14.479 142.721 15.5777 142.721 16.8897C142.721 18.319 143.078 19.4604 143.793 20.3137C144.518 21.1564 145.483 21.5777 146.689 21.5777C147.883 21.5777 148.838 21.151 149.553 20.2977C150.267 19.4444 150.625 18.3084 150.625 16.8897C150.625 15.4817 150.262 14.3564 149.537 13.5137C148.822 12.671 147.862 12.2497 146.657 12.2497ZM153.949 11.2097H155.597L161.613 20.4577V11.2097H163.069V22.6017H161.373L155.389 13.4657V22.6017H153.949V11.2097Z" fill="#FF6D1B"/>
<path d="M179 17.2781L343 17.2781" stroke="#FF6D1B"/>
</svg>
