<svg width="411" height="432" viewBox="0 0 411 432" fill="none" xmlns="http://www.w3.org/2000/svg">
<path d="M327.116 100.84L308.54 125.387C308.115 125.95 307.415 126.233 306.718 126.125L293.121 124.022C291.722 123.805 291.032 122.199 291.838 121.035L309.835 95.0552L298.225 107.176C297.817 107.603 297.186 107.73 296.643 107.496C295.879 107.166 295.564 106.25 295.964 105.519L298.795 100.343C307.628 81.8134 323.041 85.1588 338.937 87.7854C401.304 98.0897 397.125 73.2049 392.416 65.9239C384.483 53.661 360.158 52.847 345.225 53.1859C344.227 53.2086 343.278 53.6161 342.623 54.3688C336.063 61.9037 328.947 77.1673 328.947 86.2328M327.116 100.84C341.836 104.136 362.919 104.153 374.23 104.153C387.458 104.153 401.262 97.0591 406.246 87.4729C410.104 80.0592 410.618 71.1639 407.385 62.9351C404.149 54.7066 389.951 41.4805 357.389 38.1523C326.168 34.961 316.322 31.012 313.644 30.1501L314.435 27.1347C317.009 25.9311 319.035 24.2594 320.039 20.5129C321.463 15.1946 318.307 9.72805 312.989 8.30283C307.671 6.87799 302.204 9.26716 300.779 14.5854C299.909 17.8315 300.327 21.0888 302.32 23.4925L301.59 26.3679L274.466 19.458C269.96 18.31 265.204 18.6559 260.912 20.4431L108.656 83.8391L78.163 79.6171C77.4648 79.5205 76.7696 79.8149 76.3532 80.3836L68.226 91.4855C67.3897 92.6277 68.0373 94.2516 69.4304 94.5042L100.527 100.15L83.8474 99.9206C83.6063 99.9172 83.3704 99.99 83.1734 100.129C82.413 100.664 82.5752 101.835 83.4529 102.143L88.4018 103.882C104.25 109.498 112.524 107.25 118.739 98.8183C139.652 92.0238 189.765 69.3269 267.076 39.2148C267.402 39.0883 267.722 39.4241 267.568 39.7378L238.359 99.1821C237.126 101.692 234.745 103.418 231.982 103.848C202.611 108.417 153.325 119.928 141.296 124.667C133.244 127.542 120.017 129.651 113.497 138.662C84.2305 179.114 49.5356 231.748 46.9915 240.934C40.8646 236.535 29.3014 226.365 22.3674 220.828C20.5638 219.388 19.091 217.575 18.1244 215.479C14.7095 208.075 9.43388 197.14 7.65475 195.361C5.07923 192.786 -3.86802 208.511 6.70614 221.254C4.26597 225.863 3.23569 237.413 18.6355 246.74C25.469 250.879 29.1385 252.857 30.9092 253.604C29.7754 261.398 31.1925 275.902 45.2062 279.818C59.9554 283.939 60.0278 263.098 58.2203 252.163C78.6906 238.923 111.897 218.936 125.324 203.224C141.202 184.645 140.273 179.827 144.747 171.828C187.883 173.362 241.947 172.787 255.367 165.694L258.077 221.308C258.077 248.324 282.885 386.298 290.094 399.028C283.235 400.155 270.389 401.286 261.099 402.114C257.068 402.475 253.014 401.919 249.21 400.538C241.765 397.839 232.31 394.618 230.054 394.618C226.411 394.618 231.204 412.064 247.692 413.598C249.225 418.583 256.664 427.478 274.149 423.184C281.907 421.278 285.9 420.086 287.68 419.361C292.39 425.672 303.648 434.928 316.326 427.785C329.67 420.27 314.984 405.485 305.973 399.028C311.086 375.193 320.434 337.579 318.818 316.973C317.383 298.665 313.882 291.959 311.174 286.014C309.407 282.137 309.273 277.827 310.045 273.638C314.324 250.432 322.002 203.681 323.381 177.639C323.914 167.566 323.498 157.336 323.723 147.251C324.03 133.474 324.34 114.842 327.116 100.84ZM310.254 7.96195C318.045 4.43322 326.933 -4.57591 344.118 7.19509C359.356 17.6321 369.188 5.0356 373.981 4.07702M373.981 10.9535C369.084 14.1621 356.266 21.8809 340.623 11.5286C329.216 3.97924 321.864 8.20429 317.491 11.2971M374.56 16.7341C369.663 19.9423 352.397 26.8199 340.694 18.6513C330.917 11.827 324.362 14.6218 320.04 16.886" stroke="black" stroke-width="2.68403"/>
</svg>
