<svg width="343" height="35" viewBox="0 0 343 35" fill="none" xmlns="http://www.w3.org/2000/svg">
<rect x="0.688235" y="1.6731" width="127.153" height="31.8294" rx="15.9147" stroke="#FF6D1B" stroke-width="1.37647"/>
<path d="M15.0286 11.9164H20.0366C22.5859 11.9164 23.8606 12.9671 23.8606 15.0684C23.8606 15.7298 23.6793 16.3164 23.3166 16.8284C22.9646 17.3298 22.4953 17.6658 21.9086 17.8364C22.2926 17.9218 22.6019 18.0444 22.8366 18.2044C23.0713 18.3644 23.2419 18.5884 23.3486 18.8764C23.4553 19.1644 23.5246 19.4204 23.5566 19.6444C23.5886 19.8684 23.6153 20.1991 23.6366 20.6364C23.6366 20.6791 23.6419 20.7858 23.6526 20.9564C23.6633 21.1164 23.6686 21.2284 23.6686 21.2924C23.6686 21.3458 23.6739 21.4471 23.6846 21.5964C23.7059 21.7458 23.7219 21.8578 23.7326 21.9324C23.7433 22.0071 23.7593 22.1084 23.7806 22.2364C23.8019 22.3644 23.8286 22.4711 23.8606 22.5564C23.8926 22.6311 23.9299 22.7218 23.9726 22.8284C24.0153 22.9244 24.0633 23.0151 24.1166 23.1004C24.1699 23.1751 24.2286 23.2444 24.2926 23.3084H22.5646C22.4899 23.2018 22.4259 23.0684 22.3726 22.9084C22.3299 22.7484 22.2979 22.5618 22.2766 22.3484C22.2553 22.1244 22.2393 21.9484 22.2286 21.8204C22.2179 21.6818 22.2073 21.4844 22.1966 21.2284C22.1859 20.9724 22.1806 20.8284 22.1806 20.7964C22.1273 19.8258 21.9246 19.1804 21.5726 18.8604C21.2313 18.5404 20.5486 18.3804 19.5246 18.3804H16.5326V23.3084H15.0286V11.9164ZM16.5326 13.1964V17.1804H19.3646C19.7166 17.1804 20.0099 17.1698 20.2446 17.1484C20.4899 17.1271 20.7566 17.0791 21.0446 17.0044C21.3326 16.9298 21.5619 16.8231 21.7326 16.6844C21.9139 16.5458 22.0633 16.3484 22.1806 16.0924C22.2979 15.8364 22.3566 15.5271 22.3566 15.1644C22.3566 14.3964 22.1219 13.8791 21.6526 13.6124C21.1939 13.3351 20.5646 13.1964 19.7646 13.1964H16.5326ZM33.8697 11.9164V13.2284H27.4857V16.7964H33.4537V18.0604H27.4857V21.9964H33.9497V23.3084H25.9817V11.9164H33.8697ZM40.547 11.9164L44.995 23.3084H43.315L42.051 19.8204H37.267L35.971 23.3084H34.371L38.851 11.9164H40.547ZM41.603 18.6204L39.667 13.3564L37.699 18.6204H41.603ZM53.706 21.9964V23.3084H46.154V11.9164H47.658V21.9964H53.706ZM56.5966 11.9164V23.3084H55.0926V11.9164H56.5966ZM67.2332 15.2604H65.7772C65.6172 13.7138 64.6732 12.9404 62.9452 12.9404C62.1239 12.9404 61.4892 13.1058 61.0412 13.4364C60.5932 13.7671 60.3692 14.2311 60.3692 14.8284C60.3692 15.0418 60.4012 15.2284 60.4652 15.3884C60.5292 15.5484 60.6359 15.6924 60.7852 15.8204C60.9452 15.9378 61.0945 16.0391 61.2332 16.1244C61.3719 16.2098 61.5905 16.2951 61.8892 16.3804C62.1879 16.4658 62.4279 16.5298 62.6092 16.5724C62.7905 16.6044 63.0732 16.6631 63.4572 16.7484C63.9265 16.8444 64.3159 16.9351 64.6252 17.0204C64.9345 17.0951 65.3025 17.2231 65.7292 17.4044C66.1559 17.5858 66.4919 17.7884 66.7372 18.0124C66.9932 18.2258 67.2119 18.5138 67.3932 18.8764C67.5852 19.2391 67.6812 19.6498 67.6812 20.1084C67.6812 20.9084 67.4572 21.5804 67.0092 22.1244C66.5612 22.6578 66.0172 23.0311 65.3772 23.2444C64.7372 23.4578 64.0279 23.5644 63.2492 23.5644C61.8199 23.5644 60.6732 23.2284 59.8092 22.5564C58.9559 21.8738 58.5292 20.8711 58.5292 19.5484H59.9852C60.0172 20.5191 60.3425 21.2284 60.9612 21.6764C61.5799 22.1138 62.3852 22.3324 63.3772 22.3324C64.1559 22.3324 64.8225 22.1724 65.3772 21.8524C65.9319 21.5218 66.2092 20.9884 66.2092 20.2524C66.2092 19.9111 66.1345 19.6231 65.9852 19.3884C65.8359 19.1431 65.6012 18.9458 65.2812 18.7964C64.9612 18.6364 64.6412 18.5084 64.3212 18.4124C64.0012 18.3164 63.5799 18.2098 63.0572 18.0924C62.9825 18.0818 62.9292 18.0711 62.8972 18.0604C61.7239 17.7938 60.9559 17.5804 60.5932 17.4204C59.4839 16.9404 58.9292 16.1138 58.9292 14.9404C58.9292 13.8524 59.3292 13.0418 60.1292 12.5084C60.9399 11.9644 61.9159 11.6924 63.0572 11.6924C64.3052 11.6924 65.3025 11.9911 66.0492 12.5884C66.7959 13.1858 67.1905 14.0764 67.2332 15.2604ZM74.3282 11.9164L78.7762 23.3084H77.0962L75.8322 19.8204H71.0482L69.7522 23.3084H68.1522L72.6322 11.9164H74.3282ZM75.3842 18.6204L73.4482 13.3564L71.4802 18.6204H75.3842ZM86.3545 11.9164V13.2284H82.5305V23.3084H81.0265V13.2284H77.2025V11.9164H86.3545ZM89.206 11.9164V23.3084H87.702V11.9164H89.206ZM96.5786 11.6444C98.3066 11.6444 99.6506 12.1884 100.611 13.2764C101.571 14.3538 102.051 15.7671 102.051 17.5164C102.051 19.2764 101.576 20.7271 100.627 21.8684C99.6773 23.0098 98.3333 23.5804 96.5946 23.5804C95.7093 23.5804 94.9146 23.4204 94.2106 23.1004C93.5066 22.7804 92.9306 22.3378 92.4826 21.7724C92.0453 21.2071 91.7093 20.5618 91.4746 19.8364C91.2506 19.1111 91.1386 18.3271 91.1386 17.4844C91.1386 15.7031 91.6293 14.2844 92.6106 13.2284C93.6026 12.1724 94.9253 11.6444 96.5786 11.6444ZM96.5786 12.9564C95.3093 12.9564 94.3333 13.4044 93.6506 14.3004C92.9786 15.1858 92.6426 16.2844 92.6426 17.5964C92.6426 19.0258 92.9999 20.1671 93.7146 21.0204C94.4399 21.8631 95.4053 22.2844 96.6106 22.2844C97.8053 22.2844 98.7599 21.8578 99.4746 21.0044C100.189 20.1511 100.547 19.0151 100.547 17.5964C100.547 16.1884 100.184 15.0631 99.4586 14.2204C98.7439 13.3778 97.7839 12.9564 96.5786 12.9564ZM103.871 11.9164H105.519L111.535 21.1644V11.9164H112.991V23.3084H111.295L105.311 14.1724V23.3084H103.871V11.9164Z" fill="#FF6D1B"/>
<path d="M129 17.9849L343 17.9848" stroke="#FF6D1B"/>
</svg>
