<svg width="1358" height="50" viewBox="0 0 1358 50" fill="none" xmlns="http://www.w3.org/2000/svg">
<path d="M21 26.124L1357 26.1239" stroke="#FF6D1B" stroke-width="2"/>
<rect x="1" y="1.12402" width="294" height="47" rx="23.5" fill="white"/>
<rect x="1" y="1.12402" width="294" height="47" rx="23.5" stroke="#FF6D1B" stroke-width="2"/>
<path d="M33.728 16.036V18.004H24.152V23.356H33.104V25.252H24.152V31.156H33.848V33.124H21.896V16.036H33.728ZM48.9519 16.036L43.2639 24.316L49.2639 33.124H46.5279L41.9199 26.092L37.1439 33.124H34.5519L40.5759 24.316L34.9359 16.036H37.6479L41.9439 22.612L46.3839 16.036H48.9519ZM51.3358 16.036H58.3678C60.1118 16.036 61.4958 16.436 62.5198 17.236C63.5438 18.02 64.0558 19.26 64.0558 20.956C64.0558 24.396 62.1118 26.116 58.2238 26.116H53.5918V33.124H51.3358V16.036ZM53.5918 17.98V24.22H57.9358C59.1518 24.22 60.0958 23.996 60.7678 23.548C61.4558 23.084 61.7998 22.268 61.7998 21.1C61.7998 20.444 61.6878 19.9 61.4637 19.468C61.2558 19.036 60.9438 18.716 60.5278 18.508C60.1118 18.3 59.6798 18.164 59.2318 18.1C58.7838 18.02 58.2478 17.98 57.6238 17.98H53.5918ZM78.1543 31.156V33.124H66.8263V16.036H69.0823V31.156H78.1543ZM87.3382 15.628C89.9302 15.628 91.9462 16.444 93.3862 18.076C94.8262 19.692 95.5462 21.812 95.5462 24.436C95.5462 27.076 94.8342 29.252 93.4102 30.964C91.9862 32.676 89.9702 33.532 87.3622 33.532C86.0342 33.532 84.8422 33.292 83.7862 32.812C82.7302 32.332 81.8662 31.668 81.1942 30.82C80.5382 29.972 80.0342 29.004 79.6822 27.916C79.3462 26.828 79.1782 25.652 79.1782 24.388C79.1782 21.716 79.9142 19.588 81.3862 18.004C82.8742 16.42 84.8582 15.628 87.3382 15.628ZM87.3382 17.596C85.4342 17.596 83.9702 18.268 82.9462 19.612C81.9382 20.94 81.4342 22.588 81.4342 24.556C81.4342 26.7 81.9702 28.412 83.0422 29.692C84.1302 30.956 85.5782 31.588 87.3862 31.588C89.1782 31.588 90.6102 30.948 91.6822 29.668C92.7542 28.388 93.2902 26.684 93.2902 24.556C93.2902 22.444 92.7462 20.756 91.6582 19.492C90.5862 18.228 89.1462 17.596 87.3382 17.596ZM98.3726 16.036H105.885C109.709 16.036 111.621 17.612 111.621 20.764C111.621 21.756 111.349 22.636 110.805 23.404C110.277 24.156 109.573 24.66 108.693 24.916C109.269 25.044 109.733 25.228 110.085 25.468C110.437 25.708 110.693 26.044 110.853 26.476C111.013 26.908 111.117 27.292 111.165 27.628C111.213 27.964 111.253 28.46 111.285 29.116C111.285 29.18 111.293 29.34 111.309 29.596C111.325 29.836 111.333 30.004 111.333 30.1C111.333 30.18 111.341 30.332 111.357 30.556C111.389 30.78 111.413 30.948 111.429 31.06C111.445 31.172 111.469 31.324 111.501 31.516C111.533 31.708 111.573 31.868 111.621 31.996C111.669 32.108 111.725 32.244 111.789 32.404C111.853 32.548 111.925 32.684 112.005 32.812C112.085 32.924 112.173 33.028 112.269 33.124H109.677C109.565 32.964 109.469 32.764 109.389 32.524C109.325 32.284 109.277 32.004 109.245 31.684C109.213 31.348 109.189 31.084 109.173 30.892C109.157 30.684 109.141 30.388 109.125 30.004C109.109 29.62 109.101 29.404 109.101 29.356C109.021 27.9 108.717 26.932 108.189 26.452C107.677 25.972 106.653 25.732 105.117 25.732H100.629V33.124H98.3726V16.036ZM100.629 17.956V23.932H104.877C105.405 23.932 105.845 23.916 106.197 23.884C106.565 23.852 106.965 23.78 107.397 23.668C107.829 23.556 108.173 23.396 108.429 23.188C108.701 22.98 108.925 22.684 109.101 22.3C109.277 21.916 109.365 21.452 109.365 20.908C109.365 19.756 109.013 18.98 108.309 18.58C107.621 18.164 106.677 17.956 105.477 17.956H100.629ZM121.978 16.036L128.65 33.124H126.13L124.234 27.892H117.058L115.114 33.124H112.714L119.434 16.036H121.978ZM123.562 26.092L120.658 18.196L117.706 26.092H123.562ZM140.018 16.036V18.004H134.282V33.124H132.026V18.004H126.29V16.036H140.018ZM149.143 15.628C151.735 15.628 153.751 16.444 155.191 18.076C156.631 19.692 157.351 21.812 157.351 24.436C157.351 27.076 156.639 29.252 155.215 30.964C153.791 32.676 151.775 33.532 149.167 33.532C147.839 33.532 146.647 33.292 145.591 32.812C144.535 32.332 143.671 31.668 142.999 30.82C142.343 29.972 141.839 29.004 141.487 27.916C141.151 26.828 140.983 25.652 140.983 24.388C140.983 21.716 141.719 19.588 143.191 18.004C144.679 16.42 146.663 15.628 149.143 15.628ZM149.143 17.596C147.239 17.596 145.775 18.268 144.751 19.612C143.743 20.94 143.239 22.588 143.239 24.556C143.239 26.7 143.775 28.412 144.847 29.692C145.935 30.956 147.383 31.588 149.191 31.588C150.983 31.588 152.415 30.948 153.487 29.668C154.559 28.388 155.095 26.684 155.095 24.556C155.095 22.444 154.551 20.756 153.463 19.492C152.391 18.228 150.951 17.596 149.143 17.596ZM160.177 16.036H167.689C171.513 16.036 173.425 17.612 173.425 20.764C173.425 21.756 173.153 22.636 172.609 23.404C172.081 24.156 171.377 24.66 170.497 24.916C171.073 25.044 171.537 25.228 171.889 25.468C172.241 25.708 172.497 26.044 172.657 26.476C172.817 26.908 172.921 27.292 172.969 27.628C173.017 27.964 173.057 28.46 173.089 29.116C173.089 29.18 173.097 29.34 173.113 29.596C173.129 29.836 173.137 30.004 173.137 30.1C173.137 30.18 173.145 30.332 173.161 30.556C173.193 30.78 173.217 30.948 173.233 31.06C173.249 31.172 173.273 31.324 173.305 31.516C173.337 31.708 173.377 31.868 173.425 31.996C173.473 32.108 173.529 32.244 173.593 32.404C173.657 32.548 173.729 32.684 173.809 32.812C173.889 32.924 173.977 33.028 174.073 33.124H171.481C171.369 32.964 171.273 32.764 171.193 32.524C171.129 32.284 171.081 32.004 171.049 31.684C171.017 31.348 170.993 31.084 170.977 30.892C170.961 30.684 170.945 30.388 170.929 30.004C170.913 29.62 170.905 29.404 170.905 29.356C170.825 27.9 170.521 26.932 169.993 26.452C169.481 25.972 168.457 25.732 166.921 25.732H162.433V33.124H160.177V16.036ZM162.433 17.956V23.932H166.681C167.209 23.932 167.649 23.916 168.001 23.884C168.369 23.852 168.769 23.78 169.201 23.668C169.633 23.556 169.977 23.396 170.233 23.188C170.505 22.98 170.729 22.684 170.905 22.3C171.081 21.916 171.169 21.452 171.169 20.908C171.169 19.756 170.817 18.98 170.113 18.58C169.425 18.164 168.481 17.956 167.281 17.956H162.433ZM189.372 16.036L182.772 26.14V33.124H180.54V26.14L173.892 16.036H176.604L181.716 24.172L186.78 16.036H189.372ZM210.055 21.052H207.871C207.631 18.732 206.215 17.572 203.623 17.572C202.391 17.572 201.439 17.82 200.767 18.316C200.095 18.812 199.759 19.508 199.759 20.404C199.759 20.724 199.807 21.004 199.903 21.244C199.999 21.484 200.159 21.7 200.383 21.892C200.623 22.068 200.847 22.22 201.055 22.348C201.263 22.476 201.591 22.604 202.039 22.732C202.487 22.86 202.847 22.956 203.118 23.02C203.391 23.068 203.815 23.156 204.391 23.284C205.095 23.428 205.679 23.564 206.143 23.692C206.607 23.804 207.159 23.996 207.799 24.268C208.439 24.54 208.943 24.844 209.311 25.18C209.695 25.5 210.023 25.932 210.295 26.476C210.583 27.02 210.727 27.636 210.727 28.324C210.727 29.524 210.391 30.532 209.719 31.348C209.047 32.148 208.231 32.708 207.271 33.028C206.311 33.348 205.247 33.508 204.079 33.508C201.935 33.508 200.215 33.004 198.919 31.996C197.639 30.972 196.999 29.468 196.999 27.484H199.183C199.231 28.94 199.719 30.004 200.647 30.676C201.575 31.332 202.783 31.66 204.271 31.66C205.439 31.66 206.439 31.42 207.271 30.94C208.103 30.444 208.519 29.644 208.519 28.54C208.519 28.028 208.407 27.596 208.182 27.244C207.959 26.876 207.607 26.58 207.127 26.356C206.647 26.116 206.167 25.924 205.687 25.78C205.207 25.636 204.575 25.476 203.791 25.3C203.679 25.284 203.599 25.268 203.551 25.252C201.791 24.852 200.639 24.532 200.095 24.292C198.431 23.572 197.599 22.332 197.599 20.572C197.599 18.94 198.199 17.724 199.399 16.924C200.615 16.108 202.079 15.7 203.791 15.7C205.663 15.7 207.159 16.148 208.279 17.044C209.399 17.94 209.991 19.276 210.055 21.052ZM225.377 16.036V18.004H219.641V33.124H217.385V18.004H211.649V16.036H225.377ZM227.182 16.036H229.462V26.812C229.462 28.476 229.822 29.692 230.542 30.46C231.262 31.228 232.438 31.612 234.07 31.612C235.75 31.612 236.934 31.22 237.622 30.436C238.326 29.652 238.678 28.444 238.678 26.812V16.036H240.958V26.212C240.958 28.708 240.438 30.548 239.398 31.732C238.358 32.9 236.582 33.484 234.07 33.484C231.638 33.484 229.878 32.916 228.79 31.78C227.718 30.628 227.182 28.852 227.182 26.452V16.036ZM244.623 16.036H250.191C253.087 16.036 255.223 16.708 256.599 18.052C257.975 19.396 258.663 21.524 258.663 24.436C258.663 27.3 258.023 29.468 256.743 30.94C255.463 32.396 253.415 33.124 250.599 33.124H244.623V16.036ZM246.879 17.98V31.18H250.311C252.455 31.18 254.007 30.66 254.967 29.62C255.943 28.564 256.431 26.924 256.431 24.7C256.431 22.364 255.959 20.66 255.015 19.588C254.071 18.516 252.471 17.98 250.215 17.98H246.879ZM275.177 16.036L268.577 26.14V33.124H266.345V26.14L259.697 16.036H262.409L267.521 24.172L272.585 16.036H275.177Z" fill="#FF6D1B"/>
<rect x="799" y="1.12402" width="249" height="47" rx="23.5" fill="white"/>
<rect x="799" y="1.12402" width="249" height="47" rx="23.5" stroke="#FF6D1B" stroke-width="2"/>
<path d="M822.248 16.036V33.124H819.992V16.036H822.248ZM826.107 16.036H831.675C834.571 16.036 836.707 16.708 838.083 18.052C839.459 19.396 840.147 21.524 840.147 24.436C840.147 27.3 839.507 29.468 838.227 30.94C836.947 32.396 834.899 33.124 832.083 33.124H826.107V16.036ZM828.363 17.98V31.18H831.795C833.939 31.18 835.491 30.66 836.451 29.62C837.427 28.564 837.915 26.924 837.915 24.7C837.915 22.364 837.443 20.66 836.499 19.588C835.555 18.516 833.955 17.98 831.699 17.98H828.363ZM854.837 16.036V18.004H845.261V23.356H854.213V25.252H845.261V31.156H854.957V33.124H843.005V16.036H854.837ZM864.853 16.036L871.525 33.124H869.005L867.109 27.892H859.933L857.989 33.124H855.589L862.309 16.036H864.853ZM866.437 26.092L863.533 18.196L860.581 26.092H866.437ZM885.336 21.052H883.152C882.912 18.732 881.496 17.572 878.904 17.572C877.672 17.572 876.72 17.82 876.048 18.316C875.376 18.812 875.04 19.508 875.04 20.404C875.04 20.724 875.088 21.004 875.184 21.244C875.28 21.484 875.44 21.7 875.664 21.892C875.904 22.068 876.128 22.22 876.336 22.348C876.544 22.476 876.872 22.604 877.32 22.732C877.768 22.86 878.128 22.956 878.4 23.02C878.672 23.068 879.096 23.156 879.672 23.284C880.376 23.428 880.96 23.564 881.424 23.692C881.888 23.804 882.44 23.996 883.08 24.268C883.72 24.54 884.224 24.844 884.592 25.18C884.976 25.5 885.304 25.932 885.576 26.476C885.864 27.02 886.008 27.636 886.008 28.324C886.008 29.524 885.672 30.532 885 31.348C884.328 32.148 883.512 32.708 882.552 33.028C881.592 33.348 880.528 33.508 879.36 33.508C877.216 33.508 875.496 33.004 874.2 31.996C872.92 30.972 872.28 29.468 872.28 27.484H874.464C874.512 28.94 875 30.004 875.928 30.676C876.856 31.332 878.064 31.66 879.552 31.66C880.72 31.66 881.72 31.42 882.552 30.94C883.384 30.444 883.8 29.644 883.8 28.54C883.8 28.028 883.688 27.596 883.464 27.244C883.24 26.876 882.888 26.58 882.408 26.356C881.928 26.116 881.448 25.924 880.968 25.78C880.488 25.636 879.856 25.476 879.072 25.3C878.96 25.284 878.88 25.268 878.832 25.252C877.072 24.852 875.92 24.532 875.376 24.292C873.712 23.572 872.88 22.332 872.88 20.572C872.88 18.94 873.48 17.724 874.68 16.924C875.896 16.108 877.36 15.7 879.072 15.7C880.944 15.7 882.44 16.148 883.56 17.044C884.68 17.94 885.272 19.276 885.336 21.052ZM893.538 16.036H896.034L900.954 30.916L905.922 16.036H908.298L902.202 33.124H899.61L893.538 16.036ZM916.228 16.036L922.9 33.124H920.38L918.484 27.892H911.308L909.364 33.124H906.964L913.684 16.036H916.228ZM917.812 26.092L914.908 18.196L911.956 26.092H917.812ZM935.967 31.156V33.124H924.639V16.036H926.895V31.156H935.967ZM940.303 16.036V33.124H938.047V16.036H940.303ZM944.162 16.036H949.73C952.626 16.036 954.762 16.708 956.138 18.052C957.514 19.396 958.202 21.524 958.202 24.436C958.202 27.3 957.562 29.468 956.282 30.94C955.002 32.396 952.954 33.124 950.138 33.124H944.162V16.036ZM946.418 17.98V31.18H949.85C951.994 31.18 953.546 30.66 954.506 29.62C955.482 28.564 955.97 26.924 955.97 24.7C955.97 22.364 955.498 20.66 954.554 19.588C953.61 18.516 952.01 17.98 949.754 17.98H946.418ZM968.236 16.036L974.908 33.124H972.388L970.492 27.892H963.316L961.372 33.124H958.972L965.692 16.036H968.236ZM969.82 26.092L966.916 18.196L963.964 26.092H969.82ZM986.275 16.036V18.004H980.539V33.124H978.283V18.004H972.547V16.036H986.275ZM990.553 16.036V33.124H988.297V16.036H990.553ZM1001.61 15.628C1004.2 15.628 1006.22 16.444 1007.66 18.076C1009.1 19.692 1009.82 21.812 1009.82 24.436C1009.82 27.076 1009.11 29.252 1007.68 30.964C1006.26 32.676 1004.24 33.532 1001.64 33.532C1000.31 33.532 999.116 33.292 998.06 32.812C997.004 32.332 996.14 31.668 995.468 30.82C994.812 29.972 994.308 29.004 993.956 27.916C993.62 26.828 993.452 25.652 993.452 24.388C993.452 21.716 994.188 19.588 995.66 18.004C997.148 16.42 999.132 15.628 1001.61 15.628ZM1001.61 17.596C999.708 17.596 998.244 18.268 997.22 19.612C996.212 20.94 995.708 22.588 995.708 24.556C995.708 26.7 996.244 28.412 997.316 29.692C998.404 30.956 999.852 31.588 1001.66 31.588C1003.45 31.588 1004.88 30.948 1005.96 29.668C1007.03 28.388 1007.56 26.684 1007.56 24.556C1007.56 22.444 1007.02 20.756 1005.93 19.492C1004.86 18.228 1003.42 17.596 1001.61 17.596ZM1012.55 16.036H1015.02L1024.05 29.908V16.036H1026.23V33.124H1023.69L1014.71 19.42V33.124H1012.55V16.036Z" fill="#FF6D1B"/>
<rect x="1167" y="0.124023" width="191" height="49" rx="24.5" fill="#FF6D1B"/>
<path d="M1188.9 16.036H1196.41C1200.23 16.036 1202.14 17.612 1202.14 20.764C1202.14 21.756 1201.87 22.636 1201.33 23.404C1200.8 24.156 1200.1 24.66 1199.22 24.916C1199.79 25.044 1200.26 25.228 1200.61 25.468C1200.96 25.708 1201.22 26.044 1201.38 26.476C1201.54 26.908 1201.64 27.292 1201.69 27.628C1201.74 27.964 1201.78 28.46 1201.81 29.116C1201.81 29.18 1201.82 29.34 1201.83 29.596C1201.85 29.836 1201.86 30.004 1201.86 30.1C1201.86 30.18 1201.86 30.332 1201.88 30.556C1201.91 30.78 1201.94 30.948 1201.95 31.06C1201.97 31.172 1201.99 31.324 1202.02 31.516C1202.06 31.708 1202.1 31.868 1202.14 31.996C1202.19 32.108 1202.25 32.244 1202.31 32.404C1202.38 32.548 1202.45 32.684 1202.53 32.812C1202.61 32.924 1202.7 33.028 1202.79 33.124H1200.2C1200.09 32.964 1199.99 32.764 1199.91 32.524C1199.85 32.284 1199.8 32.004 1199.77 31.684C1199.74 31.348 1199.71 31.084 1199.7 30.892C1199.68 30.684 1199.66 30.388 1199.65 30.004C1199.63 29.62 1199.62 29.404 1199.62 29.356C1199.54 27.9 1199.24 26.932 1198.71 26.452C1198.2 25.972 1197.18 25.732 1195.64 25.732H1191.15V33.124H1188.9V16.036ZM1191.15 17.956V23.932H1195.4C1195.93 23.932 1196.37 23.916 1196.72 23.884C1197.09 23.852 1197.49 23.78 1197.92 23.668C1198.35 23.556 1198.7 23.396 1198.95 23.188C1199.22 22.98 1199.45 22.684 1199.62 22.3C1199.8 21.916 1199.89 21.452 1199.89 20.908C1199.89 19.756 1199.54 18.98 1198.83 18.58C1198.14 18.164 1197.2 17.956 1196 17.956H1191.15ZM1217.16 16.036V18.004H1207.58V23.356H1216.53V25.252H1207.58V31.156H1217.28V33.124H1205.33V16.036H1217.16ZM1227.17 16.036L1233.85 33.124H1231.33L1229.43 27.892H1222.25L1220.31 33.124H1217.91L1224.63 16.036H1227.17ZM1228.76 26.092L1225.85 18.196L1222.9 26.092H1228.76ZM1246.91 31.156V33.124H1235.58V16.036H1237.84V31.156H1246.91ZM1251.25 16.036V33.124H1248.99V16.036H1251.25ZM1267.2 21.052H1265.02C1264.78 18.732 1263.36 17.572 1260.77 17.572C1259.54 17.572 1258.59 17.82 1257.91 18.316C1257.24 18.812 1256.91 19.508 1256.91 20.404C1256.91 20.724 1256.95 21.004 1257.05 21.244C1257.15 21.484 1257.31 21.7 1257.53 21.892C1257.77 22.068 1257.99 22.22 1258.2 22.348C1258.41 22.476 1258.74 22.604 1259.19 22.732C1259.63 22.86 1259.99 22.956 1260.27 23.02C1260.54 23.068 1260.96 23.156 1261.54 23.284C1262.24 23.428 1262.83 23.564 1263.29 23.692C1263.75 23.804 1264.31 23.996 1264.95 24.268C1265.59 24.54 1266.09 24.844 1266.46 25.18C1266.84 25.5 1267.17 25.932 1267.44 26.476C1267.73 27.02 1267.87 27.636 1267.87 28.324C1267.87 29.524 1267.54 30.532 1266.87 31.348C1266.19 32.148 1265.38 32.708 1264.42 33.028C1263.46 33.348 1262.39 33.508 1261.23 33.508C1259.08 33.508 1257.36 33.004 1256.07 31.996C1254.79 30.972 1254.15 29.468 1254.15 27.484H1256.33C1256.38 28.94 1256.87 30.004 1257.79 30.676C1258.72 31.332 1259.93 31.66 1261.42 31.66C1262.59 31.66 1263.59 31.42 1264.42 30.94C1265.25 30.444 1265.67 29.644 1265.67 28.54C1265.67 28.028 1265.55 27.596 1265.33 27.244C1265.11 26.876 1264.75 26.58 1264.27 26.356C1263.79 26.116 1263.31 25.924 1262.83 25.78C1262.35 25.636 1261.72 25.476 1260.94 25.3C1260.83 25.284 1260.75 25.268 1260.7 25.252C1258.94 24.852 1257.79 24.532 1257.24 24.292C1255.58 23.572 1254.75 22.332 1254.75 20.572C1254.75 18.94 1255.35 17.724 1256.55 16.924C1257.76 16.108 1259.23 15.7 1260.94 15.7C1262.81 15.7 1264.31 16.148 1265.43 17.044C1266.55 17.94 1267.14 19.276 1267.2 21.052ZM1277.85 16.036L1284.52 33.124H1282L1280.1 27.892H1272.93L1270.98 33.124H1268.58L1275.3 16.036H1277.85ZM1279.43 26.092L1276.53 18.196L1273.57 26.092H1279.43ZM1295.88 16.036V18.004H1290.15V33.124H1287.89V18.004H1282.16V16.036H1295.88ZM1300.16 16.036V33.124H1297.91V16.036H1300.16ZM1311.22 15.628C1313.81 15.628 1315.83 16.444 1317.27 18.076C1318.71 19.692 1319.43 21.812 1319.43 24.436C1319.43 27.076 1318.72 29.252 1317.29 30.964C1315.87 32.676 1313.85 33.532 1311.25 33.532C1309.92 33.532 1308.73 33.292 1307.67 32.812C1306.61 32.332 1305.75 31.668 1305.08 30.82C1304.42 29.972 1303.92 29.004 1303.57 27.916C1303.23 26.828 1303.06 25.652 1303.06 24.388C1303.06 21.716 1303.8 19.588 1305.27 18.004C1306.76 16.42 1308.74 15.628 1311.22 15.628ZM1311.22 17.596C1309.32 17.596 1307.85 18.268 1306.83 19.612C1305.82 20.94 1305.32 22.588 1305.32 24.556C1305.32 26.7 1305.85 28.412 1306.93 29.692C1308.01 30.956 1309.46 31.588 1311.27 31.588C1313.06 31.588 1314.49 30.948 1315.57 29.668C1316.64 28.388 1317.17 26.684 1317.17 24.556C1317.17 22.444 1316.63 20.756 1315.54 19.492C1314.47 18.228 1313.03 17.596 1311.22 17.596ZM1322.16 16.036H1324.63L1333.66 29.908V16.036H1335.84V33.124H1333.3L1324.32 19.42V33.124H1322.16V16.036Z" fill="white"/>
<rect x="415" y="1.12402" width="264" height="47" rx="23.5" fill="white"/>
<rect x="415" y="1.12402" width="264" height="47" rx="23.5" stroke="#FF6D1B" stroke-width="2"/>
<path d="M438.248 16.036V33.124H435.992V16.036H438.248ZM442.107 16.036H447.675C450.571 16.036 452.707 16.708 454.083 18.052C455.459 19.396 456.147 21.524 456.147 24.436C456.147 27.3 455.507 29.468 454.227 30.94C452.947 32.396 450.899 33.124 448.083 33.124H442.107V16.036ZM444.363 17.98V31.18H447.795C449.939 31.18 451.491 30.66 452.451 29.62C453.427 28.564 453.915 26.924 453.915 24.7C453.915 22.364 453.443 20.66 452.499 19.588C451.555 18.516 449.955 17.98 447.699 17.98H444.363ZM470.837 16.036V18.004H461.261V23.356H470.213V25.252H461.261V31.156H470.957V33.124H459.005V16.036H470.837ZM480.853 16.036L487.525 33.124H485.005L483.109 27.892H475.933L473.989 33.124H471.589L478.309 16.036H480.853ZM482.437 26.092L479.533 18.196L476.581 26.092H482.437ZM501.336 21.052H499.152C498.912 18.732 497.496 17.572 494.904 17.572C493.672 17.572 492.72 17.82 492.048 18.316C491.376 18.812 491.04 19.508 491.04 20.404C491.04 20.724 491.088 21.004 491.184 21.244C491.28 21.484 491.44 21.7 491.664 21.892C491.904 22.068 492.128 22.22 492.336 22.348C492.544 22.476 492.872 22.604 493.32 22.732C493.768 22.86 494.128 22.956 494.4 23.02C494.672 23.068 495.096 23.156 495.672 23.284C496.376 23.428 496.96 23.564 497.424 23.692C497.888 23.804 498.44 23.996 499.08 24.268C499.72 24.54 500.224 24.844 500.592 25.18C500.976 25.5 501.304 25.932 501.576 26.476C501.864 27.02 502.008 27.636 502.008 28.324C502.008 29.524 501.672 30.532 501 31.348C500.328 32.148 499.512 32.708 498.552 33.028C497.592 33.348 496.528 33.508 495.36 33.508C493.216 33.508 491.496 33.004 490.2 31.996C488.92 30.972 488.28 29.468 488.28 27.484H490.464C490.512 28.94 491 30.004 491.928 30.676C492.856 31.332 494.064 31.66 495.552 31.66C496.72 31.66 497.72 31.42 498.552 30.94C499.384 30.444 499.8 29.644 499.8 28.54C499.8 28.028 499.688 27.596 499.464 27.244C499.24 26.876 498.888 26.58 498.408 26.356C497.928 26.116 497.448 25.924 496.968 25.78C496.488 25.636 495.856 25.476 495.072 25.3C494.96 25.284 494.88 25.268 494.832 25.252C493.072 24.852 491.92 24.532 491.376 24.292C489.712 23.572 488.88 22.332 488.88 20.572C488.88 18.94 489.48 17.724 490.68 16.924C491.896 16.108 493.36 15.7 495.072 15.7C496.944 15.7 498.44 16.148 499.56 17.044C500.68 17.94 501.272 19.276 501.336 21.052ZM526.314 24.076V33.124H524.874L524.298 30.988C522.922 32.684 521.082 33.532 518.778 33.532C516.346 33.532 514.378 32.724 512.874 31.108C511.386 29.476 510.642 27.348 510.642 24.724C510.642 22.116 511.378 19.956 512.85 18.244C514.338 16.532 516.37 15.676 518.946 15.676C520.13 15.676 521.234 15.884 522.258 16.3C523.282 16.7 524.154 17.34 524.874 18.22C525.594 19.084 526.002 20.108 526.098 21.292H523.89C523.714 20.172 523.17 19.276 522.258 18.604C521.362 17.916 520.258 17.572 518.946 17.572C517.09 17.572 515.618 18.212 514.53 19.492C513.442 20.756 512.898 22.476 512.898 24.652C512.898 26.796 513.442 28.5 514.53 29.764C515.618 31.028 517.082 31.66 518.922 31.66C520.65 31.66 521.962 31.14 522.858 30.1C523.77 29.044 524.25 27.652 524.298 25.924H518.826V24.076H526.314ZM541.525 16.036V18.004H531.949V23.356H540.901V25.252H531.949V31.156H541.645V33.124H529.693V16.036H541.525ZM544.269 16.036H546.741L555.765 29.908V16.036H557.949V33.124H555.405L546.429 19.42V33.124H544.269V16.036ZM573.517 16.036V18.004H563.941V23.356H572.893V25.252H563.941V31.156H573.637V33.124H561.685V16.036H573.517ZM576.357 16.036H583.869C587.693 16.036 589.605 17.612 589.605 20.764C589.605 21.756 589.333 22.636 588.789 23.404C588.261 24.156 587.557 24.66 586.677 24.916C587.253 25.044 587.717 25.228 588.069 25.468C588.421 25.708 588.677 26.044 588.837 26.476C588.997 26.908 589.101 27.292 589.149 27.628C589.197 27.964 589.237 28.46 589.269 29.116C589.269 29.18 589.277 29.34 589.293 29.596C589.309 29.836 589.317 30.004 589.317 30.1C589.317 30.18 589.325 30.332 589.341 30.556C589.373 30.78 589.397 30.948 589.413 31.06C589.429 31.172 589.453 31.324 589.485 31.516C589.517 31.708 589.557 31.868 589.605 31.996C589.653 32.108 589.709 32.244 589.773 32.404C589.837 32.548 589.909 32.684 589.989 32.812C590.069 32.924 590.157 33.028 590.253 33.124H587.661C587.549 32.964 587.453 32.764 587.373 32.524C587.309 32.284 587.261 32.004 587.229 31.684C587.197 31.348 587.173 31.084 587.157 30.892C587.141 30.684 587.125 30.388 587.109 30.004C587.093 29.62 587.085 29.404 587.085 29.356C587.005 27.9 586.701 26.932 586.173 26.452C585.661 25.972 584.637 25.732 583.101 25.732H578.613V33.124H576.357V16.036ZM578.613 17.956V23.932H582.861C583.389 23.932 583.829 23.916 584.181 23.884C584.549 23.852 584.949 23.78 585.381 23.668C585.813 23.556 586.157 23.396 586.413 23.188C586.685 22.98 586.909 22.684 587.085 22.3C587.261 21.916 587.349 21.452 587.349 20.908C587.349 19.756 586.997 18.98 586.293 18.58C585.605 18.164 584.661 17.956 583.461 17.956H578.613ZM599.963 16.036L606.635 33.124H604.115L602.219 27.892H595.043L593.099 33.124H590.699L597.419 16.036H599.963ZM601.547 26.092L598.643 18.196L595.691 26.092H601.547ZM618.002 16.036V18.004H612.266V33.124H610.01V18.004H604.274V16.036H618.002ZM622.279 16.036V33.124H620.023V16.036H622.279ZM633.338 15.628C635.93 15.628 637.946 16.444 639.386 18.076C640.826 19.692 641.546 21.812 641.546 24.436C641.546 27.076 640.834 29.252 639.41 30.964C637.986 32.676 635.97 33.532 633.362 33.532C632.034 33.532 630.842 33.292 629.786 32.812C628.73 32.332 627.866 31.668 627.194 30.82C626.538 29.972 626.034 29.004 625.682 27.916C625.346 26.828 625.178 25.652 625.178 24.388C625.178 21.716 625.914 19.588 627.386 18.004C628.874 16.42 630.858 15.628 633.338 15.628ZM633.338 17.596C631.434 17.596 629.97 18.268 628.946 19.612C627.938 20.94 627.434 22.588 627.434 24.556C627.434 26.7 627.97 28.412 629.042 29.692C630.13 30.956 631.578 31.588 633.386 31.588C635.178 31.588 636.61 30.948 637.682 29.668C638.754 28.388 639.29 26.684 639.29 24.556C639.29 22.444 638.746 20.756 637.658 19.492C636.586 18.228 635.146 17.596 633.338 17.596ZM644.277 16.036H646.749L655.773 29.908V16.036H657.957V33.124H655.413L646.437 19.42V33.124H644.277V16.036Z" fill="#FF6D1B"/>
</svg>
