<svg width="494" height="164" viewBox="0 0 494 164" fill="none" xmlns="http://www.w3.org/2000/svg">
<path d="M34.7387 73.0098V50.6755H28.7383V30.691C28.7383 29.1832 29.2748 27.8928 30.3479 26.8197C31.421 25.7466 32.7114 25.209 34.2192 25.2067H47.2829C48.7907 25.2067 50.0811 25.7444 51.1542 26.8197C52.2295 27.8928 52.7672 29.1832 52.7672 30.691V50.6755H46.76V73.0098H34.7387ZM40.7493 19.7224C39.1691 19.7224 37.8165 19.1599 36.6913 18.0347C35.5662 16.9073 35.0036 15.5535 35.0036 13.9733C35.0036 12.3931 35.5662 11.0404 36.6913 9.91527C37.8165 8.79012 39.1691 8.22754 40.7493 8.22754C42.3295 8.22754 43.6822 8.79012 44.8074 9.91527C45.9325 11.0404 46.4951 12.3931 46.4951 13.9733C46.4951 15.5535 45.9325 16.9073 44.8074 18.0347C43.6822 19.1599 42.3295 19.7224 40.7493 19.7224Z" fill="black"/>
<path d="M34.7387 155.51V133.175H28.7383V113.191C28.7383 111.683 29.2748 110.393 30.3479 109.32C31.421 108.247 32.7114 107.709 34.2192 107.707H47.2829C48.7907 107.707 50.0811 108.244 51.1542 109.32C52.2295 110.393 52.7672 111.683 52.7672 113.191V133.175H46.76V155.51H34.7387ZM40.7493 102.222C39.1691 102.222 37.8165 101.66 36.6913 100.535C35.5662 99.4073 35.0036 98.0535 35.0036 96.4733C35.0036 94.8931 35.5662 93.5404 36.6913 92.4153C37.8165 91.2901 39.1691 90.7275 40.7493 90.7275C42.3295 90.7275 43.6822 91.2901 44.8074 92.4153C45.9325 93.5404 46.4951 94.8931 46.4951 96.4733C46.4951 98.0535 45.9325 99.4073 44.8074 100.535C43.6822 101.66 42.3295 102.222 40.7493 102.222Z" fill="black"/>
<path d="M117.239 73.0098V50.6755H111.238V30.691C111.238 29.1832 111.775 27.8928 112.848 26.8197C113.921 25.7466 115.211 25.209 116.719 25.2067H129.783C131.291 25.2067 132.581 25.7444 133.654 26.8197C134.73 27.8928 135.267 29.1832 135.267 30.691V50.6755H129.26V73.0098H117.239ZM123.249 19.7224C121.669 19.7224 120.316 19.1599 119.191 18.0347C118.066 16.9073 117.504 15.5535 117.504 13.9733C117.504 12.3931 118.066 11.0404 119.191 9.91527C120.316 8.79012 121.669 8.22754 123.249 8.22754C124.83 8.22754 126.182 8.79012 127.307 9.91527C128.433 11.0404 128.995 12.3931 128.995 13.9733C128.995 15.5535 128.433 16.9073 127.307 18.0347C126.182 19.1599 124.83 19.7224 123.249 19.7224Z" fill="black"/>
<path d="M117.239 155.51V133.175H111.238V113.191C111.238 111.683 111.775 110.393 112.848 109.32C113.921 108.247 115.211 107.709 116.719 107.707H129.783C131.291 107.707 132.581 108.244 133.654 109.32C134.73 110.393 135.267 111.683 135.267 113.191V133.175H129.26V155.51H117.239ZM123.249 102.222C121.669 102.222 120.316 101.66 119.191 100.535C118.066 99.4073 117.504 98.0535 117.504 96.4733C117.504 94.8931 118.066 93.5404 119.191 92.4153C120.316 91.2901 121.669 90.7275 123.249 90.7275C124.83 90.7275 126.182 91.2901 127.307 92.4153C128.433 93.5404 128.995 94.8931 128.995 96.4733C128.995 98.0535 128.433 99.4073 127.307 100.535C126.182 101.66 124.83 102.222 123.249 102.222Z" fill="black"/>
<path d="M199.739 73.0098V50.6755H193.738V30.691C193.738 29.1832 194.275 27.8928 195.348 26.8197C196.421 25.7466 197.711 25.209 199.219 25.2067H212.283C213.791 25.2067 215.081 25.7444 216.154 26.8197C217.23 27.8928 217.767 29.1832 217.767 30.691V50.6755H211.76V73.0098H199.739ZM205.749 19.7224C204.169 19.7224 202.816 19.1599 201.691 18.0347C200.566 16.9073 200.004 15.5535 200.004 13.9733C200.004 12.3931 200.566 11.0404 201.691 9.91527C202.816 8.79012 204.169 8.22754 205.749 8.22754C207.33 8.22754 208.682 8.79012 209.807 9.91527C210.933 11.0404 211.495 12.3931 211.495 13.9733C211.495 15.5535 210.933 16.9073 209.807 18.0347C208.682 19.1599 207.33 19.7224 205.749 19.7224Z" fill="black"/>
<path d="M199.739 155.51V133.175H193.738V113.191C193.738 111.683 194.275 110.393 195.348 109.32C196.421 108.247 197.711 107.709 199.219 107.707H212.283C213.791 107.707 215.081 108.244 216.154 109.32C217.23 110.393 217.767 111.683 217.767 113.191V133.175H211.76V155.51H199.739ZM205.749 102.222C204.169 102.222 202.816 101.66 201.691 100.535C200.566 99.4073 200.004 98.0535 200.004 96.4733C200.004 94.8931 200.566 93.5404 201.691 92.4153C202.816 91.2901 204.169 90.7275 205.749 90.7275C207.33 90.7275 208.682 91.2901 209.807 92.4153C210.933 93.5404 211.495 94.8931 211.495 96.4733C211.495 98.0535 210.933 99.4073 209.807 100.535C208.682 101.66 207.33 102.222 205.749 102.222Z" fill="black"/>
<path d="M282.239 73.0098V50.6755H276.238V30.691C276.238 29.1832 276.775 27.8928 277.848 26.8197C278.921 25.7466 280.211 25.209 281.719 25.2067H294.783C296.291 25.2067 297.581 25.7444 298.654 26.8197C299.73 27.8928 300.267 29.1832 300.267 30.691V50.6755H294.26V73.0098H282.239ZM288.249 19.7224C286.669 19.7224 285.316 19.1599 284.191 18.0347C283.066 16.9073 282.504 15.5535 282.504 13.9733C282.504 12.3931 283.066 11.0404 284.191 9.91527C285.316 8.79012 286.669 8.22754 288.249 8.22754C289.83 8.22754 291.182 8.79012 292.307 9.91527C293.433 11.0404 293.995 12.3931 293.995 13.9733C293.995 15.5535 293.433 16.9073 292.307 18.0347C291.182 19.1599 289.83 19.7224 288.249 19.7224Z" fill="black"/>
<path d="M282.239 155.51V133.175H276.238V113.191C276.238 111.683 276.775 110.393 277.848 109.32C278.921 108.247 280.211 107.709 281.719 107.707H294.783C296.291 107.707 297.581 108.244 298.654 109.32C299.73 110.393 300.267 111.683 300.267 113.191V133.175H294.26V155.51H282.239ZM288.249 102.222C286.669 102.222 285.316 101.66 284.191 100.535C283.066 99.4073 282.504 98.0535 282.504 96.4733C282.504 94.8931 283.066 93.5404 284.191 92.4153C285.316 91.2901 286.669 90.7275 288.249 90.7275C289.83 90.7275 291.182 91.2901 292.307 92.4153C293.433 93.5404 293.995 94.8931 293.995 96.4733C293.995 98.0535 293.433 99.4073 292.307 100.535C291.182 101.66 289.83 102.222 288.249 102.222Z" fill="black"/>
<path d="M364.739 73.0098V50.6755H358.738V30.691C358.738 29.1832 359.275 27.8928 360.348 26.8197C361.421 25.7466 362.711 25.209 364.219 25.2067H377.283C378.791 25.2067 380.081 25.7444 381.154 26.8197C382.23 27.8928 382.767 29.1832 382.767 30.691V50.6755H376.76V73.0098H364.739ZM370.749 19.7224C369.169 19.7224 367.816 19.1599 366.691 18.0347C365.566 16.9073 365.004 15.5535 365.004 13.9733C365.004 12.3931 365.566 11.0404 366.691 9.91527C367.816 8.79012 369.169 8.22754 370.749 8.22754C372.33 8.22754 373.682 8.79012 374.807 9.91527C375.933 11.0404 376.495 12.3931 376.495 13.9733C376.495 15.5535 375.933 16.9073 374.807 18.0347C373.682 19.1599 372.33 19.7224 370.749 19.7224Z" fill="black"/>
<path d="M364.739 155.51V133.175H358.738V113.191C358.738 111.683 359.275 110.393 360.348 109.32C361.421 108.247 362.711 107.709 364.219 107.707H377.283C378.791 107.707 380.081 108.244 381.154 109.32C382.23 110.393 382.767 111.683 382.767 113.191V133.175H376.76V155.51H364.739ZM370.749 102.222C369.169 102.222 367.816 101.66 366.691 100.535C365.566 99.4073 365.004 98.0535 365.004 96.4733C365.004 94.8931 365.566 93.5404 366.691 92.4153C367.816 91.2901 369.169 90.7275 370.749 90.7275C372.33 90.7275 373.682 91.2901 374.807 92.4153C375.933 93.5404 376.495 94.8931 376.495 96.4733C376.495 98.0535 375.933 99.4073 374.807 100.535C373.682 101.66 372.33 102.222 370.749 102.222Z" fill="black"/>
<path d="M447.239 73.0098V50.6755H441.238V30.691C441.238 29.1832 441.775 27.8928 442.848 26.8197C443.921 25.7466 445.211 25.209 446.719 25.2067H459.783C461.291 25.2067 462.581 25.7444 463.654 26.8197C464.73 27.8928 465.267 29.1832 465.267 30.691V50.6755H459.26V73.0098H447.239ZM453.249 19.7224C451.669 19.7224 450.316 19.1599 449.191 18.0347C448.066 16.9073 447.504 15.5535 447.504 13.9733C447.504 12.3931 448.066 11.0404 449.191 9.91527C450.316 8.79012 451.669 8.22754 453.249 8.22754C454.83 8.22754 456.182 8.79012 457.307 9.91527C458.433 11.0404 458.995 12.3931 458.995 13.9733C458.995 15.5535 458.433 16.9073 457.307 18.0347C456.182 19.1599 454.83 19.7224 453.249 19.7224Z" fill="black"/>
<path d="M447.239 155.51V133.175H441.238V113.191C441.238 111.683 441.775 110.393 442.848 109.32C443.921 108.247 445.211 107.709 446.719 107.707H459.783C461.291 107.707 462.581 108.244 463.654 109.32C464.73 110.393 465.267 111.683 465.267 113.191V133.175H459.26V155.51H447.239ZM453.249 102.222C451.669 102.222 450.316 101.66 449.191 100.535C448.066 99.4073 447.504 98.0535 447.504 96.4733C447.504 94.8931 448.066 93.5404 449.191 92.4153C450.316 91.2901 451.669 90.7275 453.249 90.7275C454.83 90.7275 456.182 91.2901 457.307 92.4153C458.433 93.5404 458.995 94.8931 458.995 96.4733C458.995 98.0535 458.433 99.4073 457.307 100.535C456.182 101.66 454.83 102.222 453.249 102.222Z" fill="black"/>
</svg>
